<svg width="794" height="454" viewBox="0 0 794 454" fill="none" xmlns="http://www.w3.org/2000/svg">
<g opacity="0.1">
<path d="M742.951 450.059C751.426 419.76 797.593 247.336 762.198 204.726C723.402 157.89 670.901 268.636 654.921 272.059C638.941 275.483 654.921 46.0969 527.103 5.01493C399.285 -36.0671 412.979 187.576 392.438 227.52C371.897 267.465 180.17 0.420511 135.664 81.4471C91.1589 162.474 163.052 284.582 140.649 281.437C118.246 278.293 66.0458 202.418 29.5359 277.735C-3.74003 346.361 39.6615 434.859 47.7017 450.059H742.951Z" fill="#FF4459"/>
<path opacity="0.7" d="M742.951 450.059C751.426 419.76 797.593 247.336 762.198 204.726C723.402 157.89 670.901 268.636 654.921 272.059C638.941 275.483 654.921 46.0969 527.103 5.01493C399.285 -36.0671 412.979 187.576 392.438 227.52C371.897 267.465 180.17 0.420511 135.664 81.4471C91.1589 162.474 163.052 284.582 140.649 281.437C118.246 278.293 66.0458 202.418 29.5359 277.735C-3.74003 346.361 39.6615 434.859 47.7017 450.059H742.951Z" fill="white"/>
</g>
<path d="M1 450.059H793.222" stroke="#504755" stroke-linecap="round" stroke-linejoin="round"/>
<path d="M112.592 79.1148C114.309 68.537 107.126 58.5701 96.5485 56.853C85.9707 55.136 76.0037 62.3191 74.2867 72.8969C72.5697 83.4748 79.7528 93.4417 90.3306 95.1588C100.908 96.8758 110.875 89.6927 112.592 79.1148Z" fill="#FF4459"/>
<path d="M179.601 32.6483C183.068 32.6483 185.879 29.8375 185.879 26.3701C185.879 22.9027 183.068 20.0918 179.601 20.0918C176.133 20.0918 173.322 22.9027 173.322 26.3701C173.322 29.8375 176.133 32.6483 179.601 32.6483Z" fill="#FF4459"/>
<path d="M56.9237 129.644C56.9303 130.887 56.5677 132.104 55.8819 133.141C55.196 134.178 54.2178 134.988 53.0712 135.468C51.9246 135.948 50.6612 136.077 49.4412 135.839C48.2211 135.6 47.0993 135.005 46.2179 134.128C45.3365 133.252 44.7353 132.133 44.4903 130.914C44.2453 129.696 44.3677 128.432 44.8419 127.282C45.3161 126.133 46.1207 125.151 47.1539 124.459C48.1871 123.768 49.4022 123.399 50.6454 123.399C52.3047 123.399 53.8966 124.056 55.073 125.226C56.2494 126.396 56.9148 127.984 56.9237 129.644Z" fill="#FF4459"/>
<path d="M283.164 50.0538C289.627 43.5911 289.627 33.113 283.164 26.6503C276.701 20.1876 266.223 20.1876 259.76 26.6503C253.298 33.113 253.298 43.5911 259.76 50.0538C266.223 56.5165 276.701 56.5165 283.164 50.0538Z" fill="#FF4459"/>
<path d="M398.147 7.5353C398.156 8.89137 397.762 10.2195 397.015 11.3514C396.268 12.4832 395.202 13.3677 393.951 13.8928C392.701 14.4179 391.323 14.5599 389.992 14.3007C388.661 14.0416 387.436 13.393 386.474 12.4373C385.512 11.4815 384.856 10.2616 384.588 8.93218C384.32 7.60279 384.453 6.22381 384.97 4.97008C385.487 3.71636 386.364 2.64436 387.491 1.89001C388.618 1.13566 389.944 0.732939 391.3 0.73291C393.108 0.732872 394.843 1.44812 396.126 2.72255C397.409 3.99698 398.135 5.7271 398.147 7.5353Z" fill="#FF4459"/>
<path d="M529.168 77.4964C530.926 66.607 523.523 56.3543 512.634 54.5965C501.744 52.8386 491.491 60.2412 489.734 71.1306C487.976 82.02 495.378 92.2727 506.268 94.0305C517.157 95.7884 527.41 88.3858 529.168 77.4964Z" fill="#FF4459"/>
<path d="M630.164 37.6556C636.908 37.6556 642.375 32.1886 642.375 25.4447C642.375 18.7009 636.908 13.2339 630.164 13.2339C623.42 13.2339 617.953 18.7009 617.953 25.4447C617.953 32.1886 623.42 37.6556 630.164 37.6556Z" fill="#FF4459"/>
<path d="M129.988 130.793C129.985 132.259 129.549 133.691 128.733 134.91C127.916 136.128 126.757 137.076 125.402 137.636C124.047 138.195 122.556 138.341 121.118 138.053C119.681 137.766 118.36 137.059 117.324 136.021C116.288 134.984 115.583 133.662 115.298 132.224C115.013 130.786 115.16 129.295 115.722 127.941C116.283 126.587 117.234 125.429 118.453 124.615C119.672 123.8 121.106 123.366 122.572 123.366C123.547 123.366 124.512 123.558 125.412 123.931C126.313 124.305 127.131 124.852 127.82 125.542C128.508 126.231 129.054 127.05 129.426 127.951C129.798 128.852 129.989 129.818 129.988 130.793Z" fill="#FF4459"/>
<path d="M642.376 97.7505C642.376 99.3319 641.907 100.878 641.028 102.193C640.15 103.507 638.901 104.532 637.44 105.137C635.979 105.743 634.371 105.901 632.82 105.592C631.269 105.284 629.845 104.522 628.727 103.404C627.608 102.286 626.847 100.861 626.538 99.3104C626.23 97.7594 626.388 96.1517 626.993 94.6907C627.599 93.2297 628.623 91.9809 629.938 91.1024C631.253 90.2238 632.799 89.7549 634.38 89.7549C636.501 89.7549 638.535 90.5973 640.034 92.0967C641.534 93.5962 642.376 95.6299 642.376 97.7505Z" fill="#FF4459"/>
<path d="M727.963 45.194C732.373 45.194 735.947 41.6192 735.947 37.2095C735.947 32.7999 732.373 29.2251 727.963 29.2251C723.553 29.2251 719.979 32.7999 719.979 37.2095C719.979 41.6192 723.553 45.194 727.963 45.194Z" fill="#FF4459"/>
<path d="M773.39 168.124C775.72 158.183 769.549 148.234 759.607 145.904C749.665 143.574 739.717 149.745 737.387 159.687C735.057 169.629 741.227 179.577 751.169 181.907C761.111 184.237 771.06 178.066 773.39 168.124Z" fill="#FF4459"/>
<path d="M727.395 150.185C732.753 150.185 737.097 145.841 737.097 140.483C737.097 135.125 732.753 130.781 727.395 130.781C722.037 130.781 717.693 135.125 717.693 140.483C717.693 145.841 722.037 150.185 727.395 150.185Z" fill="#FF4459"/>
<path d="M447.653 172.843C448.509 167.554 444.915 162.573 439.625 161.717C434.336 160.861 429.354 164.455 428.499 169.745C427.643 175.034 431.237 180.015 436.526 180.871C441.816 181.727 446.797 178.133 447.653 172.843Z" fill="#FF4459"/>
<path d="M32.4707 253.759L48.0047 402.542" stroke="#504755" stroke-width="2" stroke-miterlimit="10"/>
<path d="M45.4956 374.073L38.459 366.635" stroke="#504755" stroke-width="2" stroke-miterlimit="10"/>
<path d="M40.5992 368.865C40.5856 367.728 40.3287 366.608 39.8459 365.579C39.3631 364.55 38.6656 363.636 37.8002 362.899C35.9937 361.282 26.4815 357.323 25.5336 360.669C24.5969 364.271 34.3321 371.43 40.5992 368.865Z" fill="#FF4459" stroke="#504755" stroke-miterlimit="10"/>
<path d="M40.5999 368.865L31.5449 363.222" stroke="#504755" stroke-width="0.5" stroke-miterlimit="10"/>
<path d="M47.2684 390.989L40.2207 383.562" stroke="#504755" stroke-width="2" stroke-miterlimit="10"/>
<path d="M42.361 385.782C42.3473 384.645 42.0905 383.524 41.6077 382.495C41.1249 381.466 40.4273 380.553 39.5619 379.816C37.7554 378.199 28.2432 374.24 27.2953 377.585C26.3586 381.187 36.0938 388.346 42.361 385.782Z" fill="#FF4459" stroke="#504755" stroke-miterlimit="10"/>
<path d="M42.3616 385.782L33.3066 380.139" stroke="#504755" stroke-width="0.5" stroke-miterlimit="10"/>
<path d="M41.1909 332.779L34.1543 325.341" stroke="#504755" stroke-width="2" stroke-miterlimit="10"/>
<path d="M36.3171 327.571C36.3063 326.434 36.0508 325.313 35.5678 324.283C35.0848 323.254 34.3857 322.34 33.5181 321.605C31.7115 319.988 22.1993 316.029 21.2515 319.375C20.2924 323.01 30.0165 330.136 36.3171 327.571Z" fill="#FF4459" stroke="#504755" stroke-miterlimit="10"/>
<path d="M36.2841 327.571L27.2402 321.928" stroke="#504755" stroke-width="0.5" stroke-miterlimit="10"/>
<path d="M42.9526 349.707L35.916 342.269" stroke="#504755" stroke-width="2" stroke-miterlimit="10"/>
<path d="M38.0563 344.499C38.0421 343.361 37.785 342.239 37.3023 341.208C36.8196 340.177 36.1224 339.261 35.2573 338.522C33.4507 336.905 23.9385 332.946 22.9907 336.291C22.0539 339.904 31.7892 347.052 38.0563 344.499Z" fill="#FF4459" stroke="#504755" stroke-miterlimit="10"/>
<path d="M38.0569 344.499L29.002 338.856" stroke="#504755" stroke-width="0.5" stroke-miterlimit="10"/>
<path d="M38.3251 305.291L31.2773 297.864" stroke="#504755" stroke-width="2" stroke-miterlimit="10"/>
<path d="M33.4176 300.083C33.404 298.946 33.1471 297.826 32.6643 296.797C32.1815 295.768 31.484 294.854 30.6186 294.117C28.8121 292.5 19.2999 288.541 18.352 291.887C17.4153 295.488 27.1505 302.648 33.4176 300.083Z" fill="#FF4459" stroke="#504755" stroke-miterlimit="10"/>
<path d="M33.4183 300.083L24.3633 294.44" stroke="#504755" stroke-width="0.5" stroke-miterlimit="10"/>
<path d="M35.437 277.69L28.4004 270.252" stroke="#504755" stroke-width="2" stroke-miterlimit="10"/>
<path d="M30.5407 272.483C30.5264 271.345 30.2694 270.223 29.7867 269.192C29.304 268.161 28.6067 267.245 27.7416 266.505C25.9351 264.889 16.4229 260.93 15.475 264.275C14.5383 267.888 24.2735 275.059 30.5407 272.483Z" fill="#FF4459" stroke="#504755" stroke-miterlimit="10"/>
<path d="M30.5413 272.483L21.4863 266.84" stroke="#504755" stroke-width="0.5" stroke-miterlimit="10"/>
<path d="M44.3125 364.059L49.6652 355.327" stroke="#504755" stroke-width="2" stroke-miterlimit="10"/>
<path d="M48.0365 357.948C47.814 356.834 47.8333 355.685 48.093 354.578C48.3527 353.472 48.8468 352.435 49.542 351.536C50.9805 349.584 59.4556 343.73 61.028 346.796C62.7453 350.153 54.6939 359.163 48.0365 357.948Z" fill="#FF4459" stroke="#504755" stroke-miterlimit="10"/>
<path d="M48.0371 357.948L56.1888 350.164" stroke="#504755" stroke-width="0.5" stroke-miterlimit="10"/>
<path d="M39.6738 319.531L45.0265 310.799" stroke="#504755" stroke-width="2" stroke-miterlimit="10"/>
<path d="M43.3869 313.42C43.1674 312.306 43.1881 311.157 43.4477 310.051C43.7073 308.946 44.1998 307.908 44.8924 307.008C46.3309 305.056 54.806 299.202 56.3784 302.269C58.0957 305.625 50.0444 314.636 43.3869 313.42Z" fill="#FF4459" stroke="#504755" stroke-miterlimit="10"/>
<path d="M43.3867 313.42L51.5384 305.636" stroke="#504755" stroke-width="0.5" stroke-miterlimit="10"/>
<path d="M37.6211 299.96L42.9738 291.24" stroke="#504755" stroke-width="2" stroke-miterlimit="10"/>
<path d="M41.3453 293.86C41.1226 292.744 41.1418 291.593 41.4015 290.485C41.6612 289.377 42.1554 288.338 42.8508 287.437C44.2893 285.486 52.7644 279.631 54.3368 282.698C56.0541 286.054 48.0027 295.065 41.3453 293.86Z" fill="#FF4459" stroke="#504755" stroke-miterlimit="10"/>
<path d="M41.3457 293.86L49.4974 286.065" stroke="#504755" stroke-width="0.5" stroke-miterlimit="10"/>
<path d="M34.6328 271.278L39.9855 262.547" stroke="#504755" stroke-width="2" stroke-miterlimit="10"/>
<path d="M38.3466 265.167C38.1277 264.051 38.1497 262.9 38.4112 261.792C38.6728 260.684 39.1678 259.645 39.8632 258.744C41.2906 256.793 49.7768 250.938 51.3492 254.005C53.0442 257.373 45.0152 266.383 38.3466 265.167Z" fill="#FF4459" stroke="#504755" stroke-miterlimit="10"/>
<path d="M38.3477 265.167L46.4994 257.373" stroke="#504755" stroke-width="0.5" stroke-miterlimit="10"/>
<path d="M32.3473 252.934C32.1246 251.818 32.1437 250.667 32.4034 249.559C32.6631 248.451 33.1573 247.412 33.8527 246.511C35.2913 244.559 43.7664 238.705 45.3387 241.771C47.0561 245.139 39.0047 254.15 32.3473 252.934Z" fill="#FF4459" stroke="#504755" stroke-miterlimit="10"/>
<path d="M32.3477 252.935L40.4994 245.14" stroke="#504755" stroke-width="0.5" stroke-miterlimit="10"/>
<path d="M32.816 253.269C31.6837 253.372 30.5425 253.231 29.4692 252.856C28.3959 252.481 27.4153 251.88 26.5935 251.095C24.7981 249.466 19.8469 240.411 23.0808 239.174C26.6047 237.824 34.7229 246.768 32.816 253.269Z" fill="#FF4459" stroke="#504755" stroke-miterlimit="10"/>
<path d="M32.8154 253.269L25.9238 244.348" stroke="#504755" stroke-width="0.5" stroke-miterlimit="10"/>
<path d="M73.4292 274.245L57.9844 423.05" stroke="#504755" stroke-width="2" stroke-miterlimit="10"/>
<path d="M61.3957 394.67L56.043 385.938" stroke="#504755" stroke-width="2" stroke-miterlimit="10"/>
<path d="M57.6841 388.558C57.9086 387.438 57.8893 386.283 57.6276 385.171C57.366 384.058 56.868 383.016 56.1675 382.113C54.729 380.161 46.2539 374.307 44.6815 377.374C43.0088 380.775 51.0156 389.774 57.6841 388.558Z" fill="#FF4459" stroke="#504755" stroke-miterlimit="10"/>
<path d="M57.6822 388.559L49.9766 381.176" stroke="#504755" stroke-width="0.5" stroke-miterlimit="10"/>
<path d="M65.69 353.376L60.3262 344.644" stroke="#504755" stroke-width="2" stroke-miterlimit="10"/>
<path d="M61.9663 347.265C62.1858 346.15 62.164 345 61.9024 343.894C61.6408 342.788 61.1455 341.751 60.4497 340.853C59.0111 338.901 50.536 333.047 48.9637 336.113C47.2464 339.481 55.2754 348.48 61.9663 347.265Z" fill="#FF4459" stroke="#504755" stroke-miterlimit="10"/>
<path d="M61.966 347.265L54.2715 339.882" stroke="#504755" stroke-width="0.5" stroke-miterlimit="10"/>
<path d="M63.9269 370.292L58.5742 361.572" stroke="#504755" stroke-width="2" stroke-miterlimit="10"/>
<path d="M60.2032 364.193C60.4259 363.077 60.4067 361.926 60.147 360.818C59.8873 359.71 59.3931 358.67 58.6977 357.769C57.2592 355.818 48.7729 349.963 47.2006 353.041C45.4944 356.398 53.5458 365.386 60.2032 364.193Z" fill="#FF4459" stroke="#504755" stroke-miterlimit="10"/>
<path d="M60.2043 364.192L52.5098 356.81" stroke="#504755" stroke-width="0.5" stroke-miterlimit="10"/>
<path d="M68.5343 325.887L63.1816 317.156" stroke="#504755" stroke-width="2" stroke-miterlimit="10"/>
<path d="M64.8193 319.776C65.0388 318.661 65.017 317.512 64.7554 316.406C64.4938 315.3 63.9984 314.263 63.3027 313.364C61.8641 311.412 53.389 305.558 51.8167 308.625C50.0993 311.992 58.1507 320.991 64.8193 319.776Z" fill="#FF4459" stroke="#504755" stroke-miterlimit="10"/>
<path d="M64.8209 319.776L57.1152 312.394" stroke="#504755" stroke-width="0.5" stroke-miterlimit="10"/>
<path d="M71.3996 298.276L66.0469 289.544" stroke="#504755" stroke-width="2" stroke-miterlimit="10"/>
<path d="M67.6865 292.165C67.9052 291.05 67.8831 289.901 67.6215 288.795C67.3599 287.689 66.865 286.652 66.1699 285.753C64.7313 283.802 56.2562 277.947 54.6839 281.014C52.9665 284.381 61.0179 293.381 67.6865 292.165Z" fill="#FF4459" stroke="#504755" stroke-miterlimit="10"/>
<path d="M67.6861 292.165L59.9805 284.783" stroke="#504755" stroke-width="0.5" stroke-miterlimit="10"/>
<path d="M62.3008 384.622L69.3374 377.184" stroke="#504755" stroke-width="2" stroke-miterlimit="10"/>
<path d="M67.207 379.414C67.2176 378.276 67.4731 377.152 67.956 376.121C68.439 375.09 69.1381 374.174 70.0061 373.437C71.8126 371.831 81.3136 367.861 82.2727 371.207C83.1536 374.809 73.4742 381.968 67.207 379.414Z" fill="#FF4459" stroke="#504755" stroke-miterlimit="10"/>
<path d="M67.207 379.414L76.7861 373.47" stroke="#504755" stroke-width="0.5" stroke-miterlimit="10"/>
<path d="M66.9277 340.094L73.9643 332.656" stroke="#504755" stroke-width="2" stroke-miterlimit="10"/>
<path d="M71.8242 334.886C71.8384 333.748 72.0955 332.626 72.5782 331.596C73.0609 330.565 73.7581 329.649 74.6232 328.909C76.4298 327.292 85.9308 323.334 86.8898 326.679C87.8266 330.281 78.0913 337.44 71.8242 334.886Z" fill="#FF4459" stroke="#504755" stroke-miterlimit="10"/>
<path d="M71.8242 334.887L81.4033 328.943" stroke="#504755" stroke-width="0.5" stroke-miterlimit="10"/>
<path d="M68.957 320.523L75.9936 313.085" stroke="#504755" stroke-width="2" stroke-miterlimit="10"/>
<path d="M73.8535 315.316C73.8677 314.178 74.1248 313.056 74.6075 312.025C75.0902 310.994 75.7874 310.078 76.6525 309.338C78.4591 307.722 87.9713 303.763 88.9191 307.108C89.8447 310.744 80.1206 317.869 73.8535 315.316Z" fill="#FF4459" stroke="#504755" stroke-miterlimit="10"/>
<path d="M73.8535 315.316L83.4326 309.372" stroke="#504755" stroke-width="0.5" stroke-miterlimit="10"/>
<path d="M71.9355 291.831L78.9721 284.393" stroke="#504755" stroke-width="2" stroke-miterlimit="10"/>
<path d="M76.8301 286.623C76.8406 285.482 77.0959 284.358 77.5788 283.324C78.0617 282.291 78.7609 281.374 79.6291 280.634C81.4356 279.017 90.9367 275.059 91.8957 278.404C92.8324 282.017 83.153 289.176 76.8301 286.623Z" fill="#FF4459" stroke="#504755" stroke-miterlimit="10"/>
<path d="M76.8301 286.623L86.4092 280.679" stroke="#504755" stroke-width="0.5" stroke-miterlimit="10"/>
<path d="M73.4746 273.42C73.4852 272.281 73.7407 271.158 74.2236 270.126C74.7066 269.095 75.4057 268.18 76.2736 267.442C78.0802 265.826 87.5812 261.867 88.5402 265.212C89.4658 268.814 79.7417 275.973 73.4746 273.42Z" fill="#FF4459" stroke="#504755" stroke-miterlimit="10"/>
<path d="M73.4746 273.42L83.0537 267.465" stroke="#504755" stroke-width="0.5" stroke-miterlimit="10"/>
<path d="M73.8637 273.843C72.7342 273.71 71.6463 273.336 70.6731 272.748C69.6998 272.159 68.8638 271.369 68.221 270.431C66.8048 268.468 63.7604 258.588 67.2397 258.042C70.9643 257.451 77.0641 267.877 73.8637 273.843Z" fill="#FF4459" stroke="#504755" stroke-miterlimit="10"/>
<path d="M73.8637 273.843L68.957 263.684" stroke="#504755" stroke-width="0.5" stroke-miterlimit="10"/>
<path d="M55.7324 213.659V401.817" stroke="#504755" stroke-width="2" stroke-miterlimit="10"/>
<path d="M55.888 373.526L49.6543 365.408" stroke="#504755" stroke-width="2" stroke-miterlimit="10"/>
<path d="M51.5491 367.839C51.6548 366.707 51.5164 365.566 51.1432 364.493C50.77 363.419 50.1706 362.438 49.3857 361.616C47.7576 359.821 38.7137 354.858 37.4648 358.092C36.1154 361.616 45.0478 369.735 51.5491 367.839Z" fill="#FF4459" stroke="#504755" stroke-miterlimit="10"/>
<path d="M51.5502 367.839L43.1309 361.293" stroke="#504755" stroke-width="0.5" stroke-miterlimit="10"/>
<path d="M55.888 338.165L49.6543 330.047" stroke="#504755" stroke-width="2" stroke-miterlimit="10"/>
<path d="M51.5491 332.477C51.6548 331.346 51.5164 330.205 51.1432 329.131C50.77 328.058 50.1706 327.077 49.3857 326.255C47.7576 324.46 38.7137 319.497 37.4648 322.731C36.1154 326.255 45.0478 334.373 51.5491 332.477Z" fill="#FF4459" stroke="#504755" stroke-miterlimit="10"/>
<path d="M51.5502 332.478L43.1309 325.932" stroke="#504755" stroke-width="0.5" stroke-miterlimit="10"/>
<path d="M55.888 296.659L49.6543 288.53" stroke="#504755" stroke-width="2" stroke-miterlimit="10"/>
<path d="M51.5491 290.961C51.6548 289.829 51.5164 288.688 51.1432 287.615C50.77 286.541 50.1706 285.56 49.3857 284.738C47.7576 282.943 38.7137 277.981 37.4648 281.214C36.1154 284.738 45.0478 292.901 51.5491 290.961Z" fill="#FF4459" stroke="#504755" stroke-miterlimit="10"/>
<path d="M51.5502 290.961L43.1309 284.415" stroke="#504755" stroke-width="0.5" stroke-miterlimit="10"/>
<path d="M55.888 269.015L49.6543 260.896" stroke="#504755" stroke-width="2" stroke-miterlimit="10"/>
<path d="M51.5491 263.327C51.6548 262.196 51.5164 261.055 51.1432 259.981C50.77 258.908 50.1706 257.927 49.3857 257.105C47.7576 255.309 38.7137 250.336 37.4648 253.581C36.1154 257.105 45.0478 265.223 51.5491 263.327Z" fill="#FF4459" stroke="#504755" stroke-miterlimit="10"/>
<path d="M51.5502 263.328L43.1309 256.782" stroke="#504755" stroke-width="0.5" stroke-miterlimit="10"/>
<path d="M55.888 241.259L49.6543 233.129" stroke="#504755" stroke-width="2" stroke-miterlimit="10"/>
<path d="M51.5491 235.572C51.6543 234.438 51.5156 233.296 51.1425 232.22C50.7693 231.145 50.1703 230.162 49.3857 229.338C47.7576 227.554 38.7137 222.58 37.4648 225.825C36.1154 229.338 45.0478 237.467 51.5491 235.572Z" fill="#FF4459" stroke="#504755" stroke-miterlimit="10"/>
<path d="M51.5502 235.571L43.1309 229.025" stroke="#504755" stroke-width="0.5" stroke-miterlimit="10"/>
<path d="M55.7422 384.332L61.9759 376.203" stroke="#504755" stroke-width="2" stroke-miterlimit="10"/>
<path d="M60.0814 378.645C59.9755 377.512 60.1138 376.369 60.487 375.293C60.8602 374.218 61.4596 373.235 62.2448 372.411C63.8729 370.616 72.9168 365.653 74.1657 368.887C75.5151 372.411 66.5827 380.541 60.0814 378.645Z" fill="#FF4459" stroke="#504755" stroke-miterlimit="10"/>
<path d="M60.0801 378.645L69.0012 371.742" stroke="#504755" stroke-width="0.5" stroke-miterlimit="10"/>
<path d="M55.7422 328.084L61.9759 319.966" stroke="#504755" stroke-width="2" stroke-miterlimit="10"/>
<path d="M60.0813 322.397C59.9756 321.265 60.114 320.124 60.4872 319.051C60.8604 317.977 61.4598 316.996 62.2447 316.174C63.8728 314.379 72.9167 309.417 74.1656 312.651C75.515 316.174 66.5826 324.293 60.0813 322.397Z" fill="#FF4459" stroke="#504755" stroke-miterlimit="10"/>
<path d="M60.0801 322.397L69.0012 315.494" stroke="#504755" stroke-width="0.5" stroke-miterlimit="10"/>
<path d="M55.7422 300.328L61.9759 292.21" stroke="#504755" stroke-width="2" stroke-miterlimit="10"/>
<path d="M60.0814 294.641C59.9789 293.513 60.1189 292.376 60.4921 291.306C60.8652 290.237 61.4628 289.26 62.2448 288.441C63.8729 286.645 72.9167 281.683 74.1657 284.917C75.515 288.441 66.5827 296.536 60.0814 294.641Z" fill="#FF4459" stroke="#504755" stroke-miterlimit="10"/>
<path d="M60.0801 294.641L69.0012 287.738" stroke="#504755" stroke-width="0.5" stroke-miterlimit="10"/>
<path d="M55.7422 263.64L61.9759 255.521" stroke="#504755" stroke-width="2" stroke-miterlimit="10"/>
<path d="M60.0813 257.953C59.9756 256.821 60.114 255.68 60.4872 254.606C60.8604 253.533 61.4598 252.552 62.2447 251.73C63.8728 249.935 72.9167 244.972 74.1656 248.206C75.515 251.73 66.5826 259.848 60.0813 257.953Z" fill="#FF4459" stroke="#504755" stroke-miterlimit="10"/>
<path d="M60.0801 257.953L69.0012 251.05" stroke="#504755" stroke-width="0.5" stroke-miterlimit="10"/>
<path d="M55.7422 234.802L61.9759 226.672" stroke="#504755" stroke-width="2" stroke-miterlimit="10"/>
<path d="M60.0814 229.115C59.9755 227.981 60.1138 226.838 60.487 225.763C60.8602 224.688 61.4596 223.705 62.2448 222.881C63.8729 221.086 72.9168 216.123 74.1657 219.357C75.5151 222.881 66.5827 231.01 60.0814 229.115Z" fill="#FF4459" stroke="#504755" stroke-miterlimit="10"/>
<path d="M60.0801 229.115L69.0012 222.212" stroke="#504755" stroke-width="0.5" stroke-miterlimit="10"/>
<path d="M55.3755 216.324C55.2652 215.193 55.3982 214.052 55.7656 212.977C56.1329 211.901 56.7262 210.917 57.5054 210.09C59.1336 208.295 68.1774 203.333 69.4264 206.567C70.8091 210.09 61.8768 218.186 55.3755 216.324Z" fill="#FF4459" stroke="#504755" stroke-miterlimit="10"/>
<path d="M55.375 216.324L64.285 209.421" stroke="#504755" stroke-width="0.5" stroke-miterlimit="10"/>
<path d="M55.8089 216.703C54.6713 216.689 53.55 216.431 52.5208 215.946C51.4916 215.461 50.5784 214.761 49.8429 213.893C48.2259 212.086 44.2671 202.574 47.6126 201.626C51.2368 200.701 58.3737 210.436 55.8089 216.703Z" fill="#FF4459" stroke="#504755" stroke-miterlimit="10"/>
<path d="M55.8095 216.703L49.877 207.113" stroke="#504755" stroke-width="0.5" stroke-miterlimit="10"/>
<path d="M63.4711 450.627H43.5434L41.0566 400.301H65.969L63.4711 450.627Z" fill="#504755" stroke="#504755" stroke-miterlimit="10"/>
<path d="M696.728 68.2212C698.311 72.0907 699.839 75.793 701.355 79.4953C702.593 82.4728 703.697 85.5283 705.091 88.4165C706.485 91.3047 703.909 94.9624 701.355 95.6092C700.993 95.7375 700.604 95.7729 700.225 95.712C699.845 95.6511 699.487 95.4959 699.183 95.2607C698.879 95.0254 698.639 94.7176 698.484 94.3654C698.33 94.0133 698.267 93.6281 698.3 93.2451C698.2 90.6468 700.207 88.4165 703.53 87.6024L699.069 76.6852C694.486 79.6514 690.048 82.4839 685.688 85.4168C685.398 85.6063 685.375 86.61 685.565 87.1006C686.992 90.7248 688.509 94.3268 690.026 97.9398C690.328 98.6062 690.487 99.3284 690.493 100.06C690.499 100.791 690.351 101.516 690.06 102.187C689.769 102.859 689.341 103.461 688.803 103.957C688.265 104.453 687.629 104.83 686.937 105.066C686.503 105.229 686.039 105.296 685.576 105.262C685.114 105.227 684.665 105.092 684.26 104.865C683.938 104.489 683.701 104.049 683.564 103.574C683.428 103.099 683.395 102.6 683.469 102.11C683.97 99.4676 685.699 97.8952 688.542 97.3265C685.978 91.1486 683.457 85.0599 680.893 78.8374L696.728 68.2212ZM684.093 83.5433L698.032 74.243C697.731 73.5627 697.486 72.9829 697.185 72.2803L683.101 81.3799L684.093 83.5433Z" fill="#504755"/>
<path d="M698.992 160.801C700.107 163.41 701.088 165.919 702.125 168.417C702.95 170.436 703.709 172.499 704.645 174.461C705.582 176.424 703.843 178.922 702.114 179.312C701.87 179.399 701.607 179.423 701.351 179.382C701.095 179.341 700.853 179.237 700.647 179.078C700.442 178.919 700.28 178.712 700.176 178.474C700.071 178.236 700.029 177.976 700.051 177.718C699.984 175.967 701.345 174.461 703.586 173.904L700.553 166.533C697.464 168.529 694.464 170.447 691.509 172.432C691.308 172.554 691.297 173.235 691.431 173.547C692.39 176.011 693.416 178.431 694.397 180.885C694.603 181.334 694.712 181.822 694.718 182.316C694.723 182.81 694.625 183.3 694.43 183.754C694.234 184.208 693.946 184.616 693.583 184.951C693.22 185.287 692.791 185.543 692.323 185.702C692.027 185.807 691.712 185.849 691.399 185.824C691.085 185.799 690.781 185.708 690.505 185.557C690.288 185.303 690.127 185.005 690.035 184.684C689.943 184.363 689.921 184.025 689.97 183.695C690.118 182.861 690.531 182.097 691.148 181.516C691.765 180.935 692.552 180.569 693.394 180.472C691.676 176.29 689.97 172.164 688.23 167.971L698.992 160.801ZM690.45 171.161L699.873 164.871L699.304 163.544L689.792 169.688L690.45 171.161Z" fill="#504755"/>
<path d="M95.9877 170.09L99.1101 177.706C99.9465 179.725 100.694 181.777 101.642 183.739C102.589 185.702 100.839 188.2 99.1101 188.601C98.8656 188.688 98.6031 188.712 98.3469 188.671C98.0906 188.63 97.8487 188.526 97.6434 188.367C97.4381 188.208 97.2759 188.001 97.1717 187.763C97.0675 187.525 97.0247 187.265 97.0471 187.007C96.9802 185.245 98.3407 183.739 100.582 183.193C99.5896 180.762 98.5972 178.353 97.5489 175.811C94.46 177.818 91.4602 179.736 88.5051 181.71C88.3044 181.843 88.2932 182.513 88.427 182.825C89.3861 185.278 90.412 187.709 91.3933 190.151C91.597 190.602 91.7043 191.09 91.7084 191.584C91.7124 192.078 91.613 192.568 91.4167 193.021C91.2203 193.475 90.9313 193.883 90.5681 194.218C90.205 194.553 89.7758 194.809 89.308 194.969C89.0155 195.081 88.702 195.127 88.3898 195.103C88.0775 195.08 87.7742 194.989 87.5015 194.835C87.2839 194.581 87.1235 194.283 87.0311 193.962C86.9388 193.641 86.9166 193.303 86.9662 192.973C87.112 192.137 87.5241 191.37 88.141 190.787C88.7579 190.204 89.5467 189.837 90.3897 189.739C88.6612 185.568 86.955 181.442 85.2266 177.238L95.9877 170.09ZM87.4457 180.438L96.8687 174.149C96.668 173.692 96.4895 173.301 96.2888 172.833L86.7989 178.978L87.4457 180.438Z" fill="#504755"/>
<path d="M469.952 199.095L453.481 199.663C452.6 205.407 451.719 211.049 450.838 216.759C449.862 216.297 448.762 216.165 447.704 216.382C446.647 216.599 445.688 217.154 444.972 217.963C444.699 218.293 444.5 218.678 444.388 219.091C444.277 219.505 444.255 219.938 444.326 220.361C444.52 220.71 444.788 221.013 445.112 221.248C445.436 221.483 445.807 221.645 446.199 221.721C446.813 221.867 447.451 221.881 448.071 221.762C448.69 221.644 449.278 221.395 449.794 221.032C450.311 220.67 450.744 220.202 451.067 219.659C451.389 219.117 451.592 218.512 451.663 217.885C452.199 214.54 452.689 211.194 453.269 207.849C453.347 207.403 453.816 206.734 454.117 206.667C458.577 206.499 463.116 206.421 467.777 206.332C467.264 209.622 466.762 212.9 466.25 216.201C465.274 215.734 464.173 215.599 463.114 215.816C462.055 216.034 461.096 216.592 460.384 217.405C460.19 217.635 460.035 217.895 459.927 218.175C459.732 218.445 459.608 218.758 459.565 219.088C459.521 219.417 459.561 219.753 459.679 220.063C459.797 220.374 459.991 220.65 460.242 220.868C460.494 221.085 460.795 221.236 461.12 221.308C463.294 221.989 466.807 220.584 467.086 217.718C467.153 217.104 467.231 216.491 467.309 215.878C467.766 213.034 468.201 210.179 468.692 207.336C468.77 206.89 469.227 206.165 469.539 206.154C474.067 205.986 478.594 205.919 483.289 205.819C482.743 209.298 482.23 212.588 481.705 215.855C478.895 214.941 476.42 215.666 475.338 217.629C475.143 217.897 475.018 218.21 474.975 218.539C474.932 218.868 474.971 219.203 475.089 219.513C475.208 219.823 475.402 220.098 475.653 220.314C475.905 220.531 476.207 220.681 476.531 220.751C478.695 221.442 482.218 220.037 482.497 217.171C482.776 214.305 483.322 211.651 483.746 208.886L485.374 198.481L469.952 199.095ZM453.804 204.604C453.894 203.89 453.972 203.288 454.072 202.574L468.413 202.273C468.313 202.875 468.223 203.488 468.123 204.102L453.804 204.604ZM483.635 203.589L469.216 204.091L469.439 202.34C469.444 202.247 469.444 202.154 469.439 202.061L483.847 201.76C483.791 202.407 483.724 202.953 483.635 203.589Z" fill="#504755"/>
<path d="M331.83 92.3863L315.359 92.955C314.467 98.698 313.597 104.341 312.705 110.05C311.729 109.588 310.629 109.456 309.572 109.673C308.514 109.891 307.555 110.446 306.84 111.255C306.566 111.584 306.367 111.969 306.255 112.383C306.144 112.797 306.123 113.229 306.193 113.652C306.389 114.002 306.66 114.305 306.985 114.54C307.311 114.775 307.683 114.936 308.078 115.013C308.691 115.157 309.327 115.17 309.946 115.05C310.564 114.93 311.15 114.681 311.665 114.319C312.18 113.956 312.613 113.489 312.934 112.947C313.256 112.406 313.459 111.802 313.531 111.176C314.077 107.831 314.568 104.486 315.148 101.14C315.226 100.694 315.683 100.025 315.984 99.9581C320.444 99.7908 324.983 99.7128 329.644 99.6236C329.143 102.913 328.63 106.192 328.117 109.481C327.14 109.019 326.039 108.888 324.98 109.107C323.922 109.326 322.964 109.885 322.251 110.697C322.057 110.926 321.902 111.186 321.794 111.466C321.599 111.736 321.475 112.05 321.432 112.379C321.388 112.709 321.428 113.044 321.546 113.355C321.664 113.665 321.858 113.942 322.109 114.159C322.361 114.376 322.663 114.528 322.987 114.6C325.162 115.28 328.674 113.875 328.953 111.009C329.02 110.396 329.098 109.783 329.176 109.169C329.633 106.314 330.068 103.471 330.57 100.627C330.648 100.181 331.105 99.4563 331.406 99.4452C335.934 99.2779 340.472 99.211 345.167 99.1106C344.621 102.579 344.052 105.88 343.584 109.147C340.774 108.233 338.298 108.957 337.205 110.92C337.01 111.189 336.886 111.502 336.842 111.831C336.799 112.16 336.838 112.494 336.957 112.804C337.075 113.114 337.269 113.39 337.521 113.606C337.772 113.822 338.074 113.972 338.398 114.042C340.573 114.734 344.086 113.329 344.364 110.463C344.643 107.597 345.19 104.887 345.613 102.177C346.149 98.7649 346.728 95.3414 347.253 91.7729L331.83 92.3863ZM315.683 97.8951C315.783 97.1814 315.861 96.5792 315.95 95.8544L330.291 95.5644C330.202 96.1666 330.102 96.7799 330.012 97.3933L315.683 97.8951ZM345.513 96.8803L331.094 97.3821C331.172 96.7688 331.25 96.267 331.328 95.6314C331.323 95.5385 331.323 95.4454 331.328 95.3526L345.725 95.0515L345.513 96.8803Z" fill="#504755"/>
<path d="M404.314 142.613L392.359 143.036C391.712 147.196 391.077 151.3 390.441 155.448C389.731 155.11 388.931 155.012 388.16 155.169C387.39 155.326 386.691 155.729 386.17 156.318C385.975 156.559 385.833 156.839 385.752 157.138C385.672 157.438 385.655 157.751 385.702 158.057C385.847 158.31 386.045 158.53 386.281 158.701C386.518 158.872 386.788 158.991 387.073 159.05C387.519 159.153 387.981 159.162 388.429 159.074C388.878 158.987 389.303 158.806 389.677 158.542C390.051 158.279 390.365 157.94 390.598 157.547C390.832 157.154 390.98 156.716 391.032 156.262C391.422 153.842 391.779 151.422 392.203 149.014C392.259 148.69 392.593 148.155 392.816 148.155C396.084 148.032 399.351 147.976 402.73 147.91L401.615 155.08C400.907 154.741 400.108 154.643 399.339 154.8C398.57 154.957 397.873 155.36 397.355 155.95C397.213 156.116 397.1 156.304 397.02 156.507C396.885 156.701 396.798 156.924 396.77 157.159C396.741 157.393 396.77 157.631 396.855 157.852C396.94 158.072 397.078 158.268 397.256 158.423C397.435 158.577 397.649 158.685 397.879 158.738C399.452 159.239 402.005 158.213 402.217 156.139C402.217 155.693 402.317 155.247 402.373 154.801C402.708 152.727 403.02 150.664 403.388 148.601C403.388 148.278 403.767 147.742 403.99 147.742C407.28 147.62 410.57 147.564 414.026 147.497C413.636 150.017 413.257 152.404 412.911 154.812C410.871 154.154 409.075 154.678 408.283 156.106C408.148 156.3 408.062 156.524 408.034 156.759C408.005 156.995 408.036 157.233 408.122 157.454C408.208 157.674 408.347 157.87 408.527 158.024C408.707 158.178 408.922 158.285 409.153 158.336C410.726 158.838 413.279 157.812 413.48 155.738C413.681 153.664 414.082 151.723 414.394 149.727C414.774 147.24 415.164 144.765 415.577 142.167L404.314 142.613ZM392.593 146.605L392.783 145.133L403.198 144.921C403.132 145.356 403.053 145.802 402.987 146.248L392.593 146.605ZM414.25 145.869L403.778 146.237C403.834 145.791 403.89 145.4 403.946 144.966V144.765L414.394 144.542C414.35 145.021 414.35 145.412 414.227 145.869H414.25Z" fill="#504755"/>
<path d="M281.079 128.328C281.235 128.885 281.614 129.499 281.514 130C281.34 130.994 281.375 132.013 281.617 132.992C281.859 133.971 282.303 134.889 282.919 135.688C283.934 137.209 284.839 138.8 285.629 140.449C287.034 143.65 286.365 146.605 283.945 149.37C287.29 143.728 284.614 139.981 280.153 136.702C280.004 137.038 279.881 137.385 279.785 137.739C278.525 143.527 277.287 149.315 276.027 155.091C275.856 155.928 275.511 156.719 275.014 157.414C274.518 158.109 273.882 158.692 273.146 159.126C272.411 159.56 271.593 159.835 270.744 159.933C269.896 160.032 269.037 159.951 268.221 159.697C265.645 158.927 264.999 156.485 266.995 154.634C269.225 152.537 271.912 152.225 274.923 153.43C276.73 145.099 278.514 136.847 280.298 128.595L281.079 128.328Z" fill="#504755"/>
<path d="M291.282 159.853L292.531 154.043C292.55 153.75 292.591 153.46 292.654 153.173C292.765 152.671 292.375 152.058 292.219 151.5L291.494 151.712C289.699 159.964 287.915 168.217 286.108 176.536C283.097 175.342 280.443 175.655 278.179 177.751C276.194 179.602 276.841 182.044 279.417 182.814C280.229 183.063 281.084 183.139 281.927 183.038C282.769 182.937 283.582 182.66 284.312 182.227C285.042 181.793 285.673 181.211 286.164 180.519C286.656 179.827 286.998 179.04 287.167 178.208C288.428 172.421 289.665 166.633 290.925 160.857C291.018 160.513 291.137 160.177 291.282 159.853Z" fill="#504755"/>
<path d="M511.369 144.921L512.618 139.1C512.642 138.807 512.687 138.516 512.752 138.23C512.863 137.728 512.473 137.115 512.317 136.557L511.581 136.769C509.797 145.021 508.005 153.299 506.206 161.603C503.195 160.399 500.541 160.711 498.277 162.808C496.281 164.659 496.928 167.101 499.515 167.87C500.327 168.117 501.181 168.192 502.023 168.09C502.866 167.989 503.677 167.712 504.407 167.279C505.136 166.845 505.767 166.264 506.259 165.573C506.752 164.882 507.094 164.096 507.265 163.265C508.525 157.488 509.763 151.701 511.023 145.913C511.118 145.576 511.234 145.244 511.369 144.921Z" fill="#504755"/>
<path d="M501.823 131.506L503.072 125.685C503.093 125.392 503.134 125.102 503.195 124.815C503.306 124.313 502.916 123.7 502.76 123.142L502.035 123.354C500.236 131.606 498.441 139.884 496.649 148.188C493.638 146.984 490.984 147.296 488.72 149.393C486.735 151.244 487.382 153.686 489.958 154.455C490.77 154.704 491.625 154.78 492.468 154.679C493.31 154.578 494.123 154.302 494.853 153.868C495.583 153.435 496.214 152.853 496.705 152.161C497.197 151.469 497.539 150.682 497.708 149.85C498.969 144.073 500.206 138.286 501.466 132.498C501.558 132.158 501.678 131.826 501.823 131.506Z" fill="#504755"/>
<path d="M488.497 322.787H461.879V330.002H488.497V322.787Z" fill="#504755" stroke="#504755" stroke-linecap="round" stroke-linejoin="round"/>
<path d="M478.183 450.973H472.195L470.912 330.136H479.465L478.183 450.973Z" fill="#504755" stroke="#504755" stroke-linecap="round" stroke-linejoin="round"/>
<path d="M514.335 322.787H487.717V330.002H514.335V322.787Z" fill="#504755" stroke="#504755" stroke-linecap="round" stroke-linejoin="round"/>
<path d="M504.021 450.973H498.032L496.75 330.136H505.303L504.021 450.973Z" fill="#504755" stroke="#504755" stroke-linecap="round" stroke-linejoin="round"/>
<path d="M700.943 322.787H674.324V330.002H700.943V322.787Z" fill="#504755" stroke="#504755" stroke-linecap="round" stroke-linejoin="round"/>
<path d="M690.628 450.973H684.64L683.357 330.136H691.911L690.628 450.973Z" fill="#504755" stroke="#504755" stroke-linecap="round" stroke-linejoin="round"/>
<path d="M726.783 322.787H700.164V330.002H726.783V322.787Z" fill="#504755" stroke="#504755" stroke-linecap="round" stroke-linejoin="round"/>
<path d="M716.466 450.973H710.478L709.195 330.136H717.748L716.466 450.973Z" fill="#504755" stroke="#504755" stroke-linecap="round" stroke-linejoin="round"/>
<path d="M732.547 269.171H460.953V279.742C460.953 287.432 457.898 294.807 452.461 300.244C447.024 305.682 439.649 308.736 431.959 308.736H426.629V323.233H732.547V269.171Z" fill="#504755" stroke="#504755" stroke-linecap="round" stroke-linejoin="round"/>
<path d="M582.682 239.91L571.084 253.358L576.771 267.822L587.622 260.228L582.682 239.91Z" fill="#FF4459" stroke="#504755" stroke-linecap="round" stroke-linejoin="round"/>
<path d="M625.169 293.403C625.169 293.403 599.721 355.851 599.866 358.829C600.011 361.806 604.628 372.389 605.776 380.529C606.925 388.67 609.423 424.723 609.903 426.942C610.382 429.161 614.062 443.513 612.668 445.442C611.274 447.371 598.35 449.122 595.004 450.036C591.659 450.951 588.425 452.59 582.838 452.869C577.251 453.148 572.333 451.52 572.188 448.542C572.043 445.565 579.414 443.714 582.314 442.074C585.213 440.435 592.216 431.179 592.216 431.179C592.216 431.179 577.719 386.027 576.738 381.6C575.757 377.173 569.824 362.174 571.162 352.037C572.501 341.901 589.752 282.162 589.752 282.162L630.354 281.292L625.169 293.403Z" fill="#504755" stroke="#504755" stroke-linecap="round" stroke-linejoin="round"/>
<path d="M656.437 280.378C656.437 280.378 649.055 358.282 648.23 364.293C647.404 370.303 652.266 378.266 651.229 387.633C650.192 397 639.743 434.803 639.42 435.941C639.173 438.548 639.301 441.176 639.799 443.747C640.301 446.334 641.115 447.784 639.297 448.62C634.277 450.281 629.063 451.285 623.786 451.609C617.831 451.899 606.334 453.215 604.07 452.579C601.806 451.943 600.524 448.642 600.825 447.137C601.126 445.632 608.341 440.803 610.482 438.84C612.623 436.878 617.853 429.529 618.544 428.38C619.236 427.232 620.897 423.05 620.775 420.808C620.652 418.567 625.235 391.134 623.953 378.901C622.67 366.668 618.087 318.772 618.087 318.772L617.965 301.332L619.615 288.374L656.437 280.378Z" fill="#504755" stroke="#504755" stroke-linecap="round" stroke-linejoin="round"/>
<path d="M585.603 154.01L596.61 156.006C596.61 156.006 603.3 205.708 604.204 215.521C605.107 225.334 608.385 281.404 608.385 281.404L586.172 281.683L577.251 213.659L570.917 173.134C570.917 173.134 567.326 153.285 585.603 154.01Z" fill="#504755" stroke="#504755" stroke-linecap="round" stroke-linejoin="round"/>
<path d="M578.01 183.717C578.01 183.717 585.939 255.867 586.039 263.584C586.14 271.301 590.578 288.731 589.552 290.158C588.526 291.585 584.589 295.912 583.697 294.619C582.805 293.325 583.898 259.302 582.136 251.396C580.374 243.489 567.639 208.529 566.658 199.753C565.677 190.977 567.773 182.87 569.357 181.688C570.788 180.867 572.477 180.62 574.083 180.997C575.69 181.373 577.093 182.346 578.01 183.717Z" fill="#FF4459" stroke="#504755" stroke-linecap="round" stroke-linejoin="round"/>
<path d="M581.991 243.255C581.991 243.255 570.327 214.718 572.156 190.665" stroke="#504755" stroke-linecap="round" stroke-linejoin="round"/>
<path d="M584.398 150.453C584.214 148.296 584.624 146.13 585.583 144.19C586.543 142.25 588.015 140.609 589.84 139.446C596.241 135.186 608.553 142.948 606.345 143.751C604.66 144.176 602.89 144.118 601.237 143.583C601.237 143.583 606.746 149.159 604.761 151.858C602.776 154.556 597.568 155.839 594.045 155.27C590.521 154.701 587.019 154.144 584.398 150.453Z" fill="#504755" stroke="#504755" stroke-linecap="round" stroke-linejoin="round"/>
<path d="M545.503 155.337C545.503 155.337 547.677 160.913 548.848 163.143C550.019 165.373 552.539 165.697 553.097 168.406C553.759 171.113 554.736 173.733 556.008 176.212C556.933 178.063 559.855 177.495 560.892 177.238L561.929 176.971C562.552 178.5 563.477 179.889 564.65 181.052C566.178 182.234 570.371 181.822 570.371 181.822C570.372 182.475 570.593 183.109 570.997 183.623C571.401 184.136 571.966 184.499 572.601 184.654C574.943 185.379 579.102 184.342 579.102 184.342L583.418 186.65C585.832 180.969 587.797 175.108 589.295 169.12C591.525 159.753 589.049 155.459 589.049 155.459L585.604 153.943C585.604 153.943 582.593 139.58 579.147 133.658C575.701 127.737 569.311 125.93 559.074 127.692C548.837 129.454 539.113 145.278 539.147 150.33C539.18 155.381 540.005 158.972 545.503 155.337Z" fill="white" stroke="#504755" stroke-linecap="round" stroke-linejoin="round"/>
<path d="M539.168 150.397C539.168 145.345 548.87 129.521 559.096 127.759C569.322 125.997 575.7 127.759 579.168 133.725C581.755 138.186 584.108 147.397 585.112 151.702C583.997 152.192 582.369 151.757 579.826 151.356C575.585 150.627 571.669 148.615 568.608 145.591C568.273 145.289 567.693 145.591 566.969 146.126C567.738 156.753 576.648 162.92 579.938 166.7C583.227 170.481 582.826 174.127 582.168 178.788C581.51 183.45 579.079 184.364 579.079 184.364C579.079 184.364 574.92 185.401 572.578 184.676C571.975 184.535 571.433 184.204 571.032 183.733C570.63 183.261 570.391 182.674 570.347 182.056C571.05 181.928 571.743 181.753 572.422 181.532C575.321 180.55 577.139 174.841 577.139 174.841C578.009 171.217 574.908 167.793 571.886 162.05C569.712 157.913 566.032 151.891 564.147 148.847C562.541 150.508 560.902 152.192 559.843 152.337C557.546 152.661 559.185 147.319 558.014 144.855C556.843 142.39 553.743 147.799 552.572 149.75C551.401 151.702 545.48 155.326 545.48 155.326C540.004 158.972 539.246 155.437 539.168 150.397Z" fill="#504755" stroke="#504755" stroke-linecap="round" stroke-linejoin="round"/>
<path d="M568.163 149.817C568.163 149.817 548.837 167.581 549.082 168.206C549.328 168.83 553.978 173.848 557.134 173.703C560.29 173.558 560.858 172.466 559.888 169.99C558.964 168.049 557.741 166.266 556.264 164.704L568.163 149.817Z" fill="#504755" stroke="#504755" stroke-linecap="round" stroke-linejoin="round"/>
<path d="M568.351 153.809C568.351 153.809 566.121 147.397 568.585 145.591C571.05 143.784 575.6 147.141 576.804 150.241C578.008 153.341 576.291 156.998 575.053 157.478" fill="white"/>
<path d="M568.351 153.809C568.351 153.809 566.121 147.397 568.585 145.591C571.05 143.784 575.6 147.141 576.804 150.241C578.008 153.341 576.291 156.998 575.053 157.478" stroke="#504755" stroke-linecap="round" stroke-linejoin="round"/>
<path d="M591.805 155.314C591.805 155.314 594.849 161.381 595.663 178.164C596.477 194.947 600.815 244.102 601.317 260.071C601.819 276.04 607.829 297.54 608.755 299.425C609.68 301.309 614.119 301.923 616.561 301.8C619.003 301.677 629.162 300.083 646.179 292.879C663.196 285.675 672.229 278.382 671.582 276.464C670.935 274.546 639.433 165.797 637.593 162.016C635.753 158.236 625.159 156.006 614.989 156.508C607.242 156.683 599.493 156.284 591.805 155.314Z" fill="#FF4459" stroke="#504755" stroke-linecap="round" stroke-linejoin="round"/>
<path d="M605.822 239.954C605.198 243.191 604.348 246.381 603.279 249.5" stroke="#504755" stroke-linecap="round" stroke-linejoin="round"/>
<path d="M601.305 158.036C601.305 158.036 609.568 191.825 608.743 214.484C608.542 219.982 608.118 224.866 607.628 229.126" stroke="#504755" stroke-linecap="round" stroke-linejoin="round"/>
<path d="M596.609 191.913L594.925 196.954L585.536 190.04L582.48 201.972" stroke="white" stroke-linecap="round" stroke-linejoin="round"/>
<path d="M591.805 195.181L588.883 203.043L599.778 268.145L596.466 279.341L588.76 262.625L585.906 204.292L583.129 198.08L585.538 190.04L591.805 195.181Z" fill="white"/>
<path d="M574.53 251.73C574.53 251.73 571.185 247.738 570.839 244.024C570.494 240.311 568.263 242.273 567.94 244.158C567.617 246.043 568.81 249.31 569.055 250.135C569.3 250.96 574.82 253.38 574.82 253.38L574.53 251.73Z" fill="white" stroke="#504755" stroke-linecap="round" stroke-linejoin="round"/>
<path d="M566.267 182.089C566.267 182.089 565.575 189.182 564.639 191.312C563.702 193.442 560.301 195.884 560.301 195.884L556.844 193.14L566.267 182.089Z" fill="#504755" stroke="#504755" stroke-linecap="round" stroke-linejoin="round"/>
<path d="M560.301 195.883C560.301 195.883 551.692 206.89 546.551 212.131C541.41 217.372 536.225 223.996 541.689 229.539C547.153 235.081 627.812 285.43 627.812 285.43C627.812 285.43 633.109 287.459 634.982 296.09C636.856 304.722 625.827 317.1 615.077 317.211C604.327 317.323 594.893 308.023 585.247 301.845C575.601 295.667 566.289 300.072 566.579 302.335C566.689 303.48 566.951 304.606 567.36 305.681L551.179 281.482C553.064 282.08 555.069 282.199 557.011 281.828C559.476 281.081 573.571 276.252 582.091 280.601C590.611 284.95 600.58 295.912 607.037 298.075C613.493 300.239 611.932 296.38 608.91 293.827C606.869 292.121 540.686 240.868 539.593 239.675C538.5 238.482 530.984 235.215 529.411 229.226C527.371 221.487 534.229 215.019 536.615 212.822C539.002 210.626 545.693 205.251 549.551 201.18C554.29 196.173 556.844 193.14 556.844 193.14L560.301 195.883Z" fill="white" stroke="#504755" stroke-linecap="round" stroke-linejoin="round"/>
<path d="M590.408 298.539C593.229 297.788 594.907 294.892 594.156 292.071C593.405 289.25 590.509 287.572 587.688 288.324C584.867 289.075 583.189 291.97 583.94 294.791C584.691 297.612 587.587 299.29 590.408 298.539Z" fill="white" stroke="#504755" stroke-linecap="round" stroke-linejoin="round"/>
<path d="M600.742 305.732C603.45 304.642 604.762 301.563 603.671 298.855C602.581 296.147 599.502 294.836 596.794 295.926C594.086 297.016 592.774 300.095 593.865 302.803C594.955 305.511 598.034 306.823 600.742 305.732Z" fill="white" stroke="#504755" stroke-linecap="round" stroke-linejoin="round"/>
<path d="M620.222 308.19C623.053 307.431 624.733 304.52 623.974 301.688C623.215 298.856 620.305 297.176 617.473 297.935C614.641 298.694 612.961 301.605 613.72 304.437C614.479 307.268 617.39 308.949 620.222 308.19Z" fill="white" stroke="#504755" stroke-width="1.00424" stroke-linecap="round" stroke-linejoin="round"/>
<path d="M611.531 292.355C611.587 293.4 611.952 294.405 612.578 295.243C613.205 296.081 614.067 296.714 615.053 297.063C616.04 297.412 617.108 297.461 618.122 297.204C619.137 296.946 620.052 296.394 620.753 295.617C621.454 294.84 621.909 293.873 622.061 292.837C622.213 291.802 622.054 290.744 621.605 289.799C621.157 288.853 620.438 288.062 619.54 287.524C618.642 286.987 617.605 286.727 616.56 286.779C615.863 286.815 615.181 286.987 614.551 287.287C613.921 287.586 613.357 288.007 612.89 288.525C612.423 289.042 612.062 289.647 611.829 290.304C611.596 290.962 611.494 291.658 611.531 292.355Z" fill="white" stroke="#504755" stroke-linecap="round" stroke-linejoin="round"/>
<path d="M583.306 271.713C583.349 272.594 583.652 273.442 584.177 274.151C584.701 274.86 585.424 275.397 586.254 275.695C587.084 275.993 587.984 276.038 588.839 275.825C589.695 275.612 590.468 275.15 591.062 274.498C591.655 273.845 592.041 273.032 592.172 272.16C592.303 271.288 592.173 270.396 591.798 269.598C591.423 268.8 590.819 268.132 590.064 267.676C589.309 267.221 588.436 267 587.555 267.041C586.969 267.068 586.394 267.211 585.863 267.46C585.332 267.71 584.856 268.062 584.461 268.496C584.066 268.93 583.761 269.437 583.563 269.99C583.365 270.542 583.278 271.127 583.306 271.713Z" fill="white" stroke="#504755" stroke-linecap="round" stroke-linejoin="round"/>
<path d="M550.778 250.526C551.257 250.96 551.853 251.242 552.492 251.338C553.131 251.433 553.784 251.336 554.369 251.06C554.953 250.785 555.442 250.342 555.775 249.788C556.108 249.234 556.268 248.594 556.237 247.948C556.206 247.303 555.984 246.681 555.6 246.162C555.215 245.642 554.686 245.249 554.077 245.03C553.469 244.812 552.81 244.779 552.183 244.935C551.556 245.092 550.99 245.431 550.555 245.909C549.975 246.552 549.673 247.398 549.715 248.263C549.757 249.128 550.139 249.942 550.778 250.526Z" fill="white" stroke="#504755" stroke-linecap="round" stroke-linejoin="round"/>
<path d="M543.093 244.56C543.573 244.996 544.171 245.28 544.813 245.376C545.454 245.472 546.11 245.376 546.697 245.1C547.283 244.823 547.775 244.379 548.109 243.823C548.443 243.267 548.605 242.624 548.574 241.976C548.542 241.328 548.32 240.704 547.934 240.183C547.548 239.662 547.016 239.267 546.405 239.048C545.794 238.829 545.133 238.796 544.503 238.953C543.874 239.111 543.306 239.451 542.87 239.932C542.58 240.25 542.355 240.622 542.209 241.027C542.063 241.432 541.999 241.862 542.019 242.292C542.04 242.722 542.146 243.144 542.33 243.533C542.514 243.922 542.774 244.271 543.093 244.56Z" fill="white" stroke="#504755" stroke-linecap="round" stroke-linejoin="round"/>
<path d="M563.335 261.275C563.814 261.712 564.413 261.996 565.054 262.092C565.696 262.188 566.351 262.092 566.938 261.815C567.525 261.539 568.016 261.094 568.351 260.538C568.685 259.982 568.846 259.34 568.815 258.692C568.784 258.044 568.561 257.42 568.175 256.899C567.789 256.378 567.257 255.982 566.647 255.764C566.036 255.545 565.374 255.512 564.745 255.669C564.116 255.827 563.547 256.167 563.112 256.648C562.528 257.291 562.224 258.14 562.266 259.008C562.307 259.875 562.692 260.691 563.335 261.275Z" fill="white" stroke="#504755" stroke-linecap="round" stroke-linejoin="round"/>
<path d="M571.13 265.915C571.609 266.353 572.208 266.639 572.85 266.736C573.492 266.833 574.148 266.738 574.736 266.461C575.323 266.185 575.816 265.741 576.15 265.184C576.485 264.628 576.647 263.985 576.616 263.336C576.584 262.688 576.361 262.063 575.974 261.541C575.588 261.02 575.055 260.625 574.443 260.407C573.832 260.188 573.169 260.157 572.54 260.315C571.91 260.474 571.342 260.816 570.907 261.298C570.327 261.941 570.025 262.788 570.066 263.653C570.108 264.518 570.49 265.331 571.13 265.915Z" fill="white" stroke="#504755" stroke-linecap="round" stroke-linejoin="round"/>
<path d="M618.054 261.588C618.054 261.588 602.107 269.137 601.851 269.561C601.594 269.985 596.609 281.014 596.609 281.014C596.609 281.014 597.479 281.794 598.026 281.772C598.572 281.75 602.163 275.906 602.163 275.906L605.096 273.676C605.096 273.676 601.059 281.482 600.802 282.04C600.546 282.597 599.498 286.244 600.189 286.355C600.68 286.333 601.153 286.167 601.55 285.877C601.946 285.588 602.249 285.188 602.419 284.727C602.921 283.612 605.062 279.341 605.319 278.917C605.575 278.493 608.218 276.007 608.218 276.007C608.218 276.007 604.103 285.051 603.992 285.753C603.88 286.456 603.423 288.262 603.992 288.374C604.478 288.336 604.944 288.163 605.337 287.876C605.731 287.588 606.037 287.197 606.222 286.746C606.724 285.63 607.817 282.664 608.307 281.393C608.926 280.175 609.674 279.028 610.538 277.969C610.538 277.969 608.229 284.582 608.307 285.775C608.385 286.969 608.541 287.838 609.222 287.66C609.902 287.482 610.772 285.24 611.006 284.538C611.24 283.835 611.931 280.757 612.188 280.333C612.444 279.91 616.303 276.988 617.496 275.784C618.689 274.579 623.797 266.227 623.797 266.227L618.054 261.588Z" fill="white" stroke="#504755" stroke-linecap="round" stroke-linejoin="round"/>
<path d="M617.854 158.058C617.854 158.058 633.243 157.032 636.655 159.072C640.067 161.113 664.355 218.108 663.419 220.64C662.482 223.171 625.916 271.568 625.916 271.568L614.096 261.108L637.157 219.447L620.151 192.973" fill="#FF4459"/>
<path d="M617.854 158.058C617.854 158.058 633.243 157.032 636.655 159.072C640.067 161.113 664.355 218.108 663.419 220.64C662.482 223.171 625.916 271.568 625.916 271.568L614.096 261.108L637.157 219.447L620.151 192.973" stroke="#504755" stroke-linecap="round" stroke-linejoin="round"/>
<path d="M557.022 261.164C557.022 261.164 560.212 256.704 560.948 256.849C561.684 256.994 562.721 257.406 562.665 258.231C562.609 259.057 560.502 262.926 559.152 263.45C557.803 263.974 556.465 263.027 557.022 261.164Z" fill="white" stroke="#504755" stroke-linecap="round" stroke-linejoin="round"/>
<path d="M561.025 262.257C561.025 262.257 564.582 257.874 565.218 257.796C565.853 257.718 566.723 258.454 566.668 259.38C566.612 260.305 563.969 264.275 563.534 264.855C563.099 265.435 560.612 265.268 560.189 264.855C559.765 264.443 560.01 263.026 560.01 263.026L561.025 262.257Z" fill="white" stroke="#504755" stroke-linecap="round" stroke-linejoin="round"/>
<path d="M565.174 262.703C565.174 262.703 568.107 258.622 568.754 258.778C569.401 258.934 570.304 260.35 570.137 260.729C569.97 261.108 568.341 265.502 567.449 266.093C566.934 266.298 566.375 266.368 565.825 266.298C565.275 266.228 564.752 266.019 564.305 265.692C563.925 265.246 563.535 264.811 563.535 264.811L565.174 262.703Z" fill="white" stroke="#504755" stroke-linecap="round" stroke-linejoin="round"/>
<path d="M568.575 264.565C568.575 264.565 570.548 261.633 571.006 261.61C571.463 261.588 572.188 261.554 572.411 262.279C572.634 263.004 571.296 266.829 570.615 267.13C569.935 267.431 567.047 267.398 568.575 264.565Z" fill="white" stroke="#504755" stroke-linecap="round" stroke-linejoin="round"/>
<path d="M408.998 293.838C408.998 293.838 418.421 295.009 419.603 295.355C420.785 295.7 425.179 299.559 431.223 302.425C437.267 305.29 439.642 304.108 440.479 304.945C441.274 306.091 441.741 307.433 441.828 308.825C441.828 309.495 440.713 311.056 439.81 309.662C439.244 308.791 438.565 308 437.791 307.309H431.1C429.584 307.309 437.155 309.327 436.988 309.996C436.821 310.665 437.49 311.346 435.639 311.011C433.788 310.677 427.565 309.662 426.718 309.495C425.87 309.327 426.718 309.996 422.168 308.313C419.399 307.217 417.054 305.263 415.477 302.737L409.756 301.889L408.998 293.838Z" fill="white" stroke="#504755" stroke-linecap="round" stroke-linejoin="round"/>
<path d="M379.359 288.786L410.338 292.656L410.851 306.127L382.058 307.309L379.359 288.786Z" fill="#FF4459" stroke="#504755" stroke-linecap="round" stroke-linejoin="round"/>
<path d="M367.148 225.747L374.218 230.096L376.125 236.631L366.902 233.921L367.148 225.747Z" fill="white" stroke="#504755" stroke-linecap="round" stroke-linejoin="round"/>
<path d="M368.24 231.457C368.24 231.457 375.199 238.404 375.422 240.645C375.564 242.379 375.413 244.125 374.976 245.808C374.753 246.712 380.551 247.727 381.042 255.343C381.164 260.927 380.594 266.504 379.347 271.948C379.347 271.948 377.217 253.882 372.957 246.299C368.697 238.716 367.794 236.653 366.902 233.966C366.01 231.278 368.24 231.457 368.24 231.457Z" fill="#504755" stroke="#504755" stroke-linecap="round" stroke-linejoin="round"/>
<path d="M345.816 173.803C345.816 173.803 353.22 173.58 357.926 176.279C362.632 178.978 363.758 185.2 366.223 187.486C368.687 189.772 375.2 191.534 376.092 192.426C376.671 193.054 377.029 193.853 377.111 194.702C377.194 195.552 376.996 196.405 376.549 197.132C375.434 198.928 374.073 200.946 374.073 200.946C374.073 200.946 377.218 208.128 376.995 211.941C376.772 215.755 373.85 216.647 372.535 217.104C370.934 217.977 369.438 219.028 368.074 220.238L366.056 231.233L336.895 220.015C336.571 218.763 336.348 217.488 336.225 216.201V215.086C336.225 215.086 323.792 210.09 323.669 200.511C323.39 183.449 335.278 174.037 345.816 173.803Z" fill="white" stroke="#504755" stroke-linecap="round" stroke-linejoin="round"/>
<path d="M336.169 215.075C339.314 215.309 341.109 211.038 342.001 208.797C342.894 206.555 342.894 205.886 344.232 204.091C345.258 202.892 345.886 201.403 346.027 199.831C346.25 198.259 343.797 196.909 342.682 195.571C341.567 194.233 344.7 189.505 344.031 186.594C343.362 183.684 338.455 185.925 336.403 185.022C334.352 184.118 338.634 178.967 343.094 176.502C344.538 175.744 345.905 174.848 347.176 173.826C346.317 173.826 345.782 173.826 345.782 173.826C335.244 174.06 323.356 183.472 323.579 200.522C323.735 210.079 336.169 215.075 336.169 215.075Z" fill="#504755" stroke="#504755" stroke-linecap="round" stroke-linejoin="round"/>
<path d="M350.787 209.923C350.564 210.592 347.208 212.387 344.732 212.387C342.256 212.387 338.041 208.797 338.231 204.314C338.42 199.831 346.974 203.422 346.974 203.422" fill="white"/>
<path d="M350.787 209.923C350.564 210.592 347.208 212.387 344.732 212.387C342.256 212.387 338.041 208.797 338.231 204.314C338.42 199.831 346.974 203.422 346.974 203.422" stroke="#504755" stroke-linecap="round" stroke-linejoin="round"/>
<path d="M359.498 192.872C360.481 192.905 361.448 192.617 362.253 192.052C363.058 191.487 363.656 190.675 363.959 189.739" stroke="#504755" stroke-linecap="round" stroke-linejoin="round"/>
<path d="M361.071 185.468C361.071 185.468 358.15 184.13 355.908 190.185" stroke="#504755" stroke-linecap="round" stroke-linejoin="round"/>
<path d="M372.959 202.574C372.959 202.574 370.728 206.834 366 203.477" stroke="#504755" stroke-linecap="round" stroke-linejoin="round"/>
<path d="M336.169 216.201L368.017 227.643L368.698 238.627L334.15 222.033L336.169 216.201Z" fill="white" stroke="#504755" stroke-linecap="round" stroke-linejoin="round"/>
<path d="M384.722 324.95C384.722 324.95 414.273 333.202 425.782 340.35C432.473 344.521 427.878 356.297 427.231 358.193C426.585 360.088 395.305 425.023 394.981 425.994C394.439 427.116 393.798 428.187 393.063 429.194L386.963 430.164L388.569 435.294C388.569 435.294 398.193 441.985 400.758 442.988C403.323 443.992 407.449 445.219 407.449 446.523C407.449 447.828 407.772 449.412 405.843 449.735C399.759 450.423 393.611 450.315 387.554 449.412C379.213 448.129 361.906 444.951 361.906 444.951C361.906 444.951 360.3 444.951 361.583 441.427C362.865 437.903 369.601 420.239 369.601 420.239L392.048 357.992L364.783 356.397L384.722 324.95Z" fill="#504755" stroke="#504755" stroke-linecap="round" stroke-linejoin="round"/>
<path d="M419.514 343.785L447.872 423.663L445.943 426.874C448.47 427.522 451.048 427.951 453.649 428.157C456.214 428.157 470.967 426.551 470.967 426.551C470.967 426.551 474.045 426.83 472.573 430.398C471.458 433.075 467.766 437.457 461.99 440.345C456.214 443.234 451.084 444.806 447.493 446.445C443.902 448.085 440.434 450.293 438.193 449.657C435.951 449.021 431.77 436.175 431.77 436.175L426.004 438.104L390.71 359.72L356.787 359.174L368.898 324.816C368.898 324.816 406.043 323.891 419.514 343.785Z" fill="#504755" stroke="#504755" stroke-linecap="round" stroke-linejoin="round"/>
<path d="M394.436 362.865L405.475 390.186" stroke="white" stroke-linecap="round" stroke-linejoin="round"/>
<path d="M385.726 447.995C383.707 445.709 379.157 446.981 378.143 444.706C377.128 442.431 377.128 421.946 374.597 415.623C372.433 410.192 362.464 409.233 359.665 409.077V365.675H354.089V409.11C350.744 409.356 341.7 410.482 339.592 415.623C337.061 421.946 337.061 442.386 336.046 444.706C335.031 447.025 330.47 445.709 328.463 447.995C326.456 450.281 333.771 452.032 337.819 450.516C339.531 449.952 340.994 448.813 341.962 447.292C342.93 445.772 343.341 443.964 343.127 442.174C342.882 438.628 344.142 420.674 346.417 417.641C348.692 414.608 354.033 414.786 354.033 414.786V448.653C354.137 449.319 354.474 449.925 354.986 450.363C355.497 450.801 356.148 451.041 356.821 451.041C357.494 451.041 358.145 450.801 358.657 450.363C359.168 449.925 359.506 449.319 359.609 448.653L360.1 414.786C360.1 414.786 365.441 414.608 367.716 417.641C369.991 420.674 371.262 438.628 371.006 442.174C370.792 443.964 371.203 445.772 372.171 447.292C373.138 448.813 374.602 449.952 376.314 450.516C380.418 452.032 387.755 450.27 385.726 447.995Z" fill="white" stroke="#504755" stroke-linecap="round" stroke-linejoin="round"/>
<path d="M382.526 351.034H331.174V367.326H382.526V351.034Z" fill="white" stroke="#504755" stroke-linecap="round" stroke-linejoin="round"/>
<path d="M382.526 351.034H331.174V360.412H382.526V351.034Z" fill="#504755" stroke="#504755" stroke-linecap="round" stroke-linejoin="round"/>
<path d="M334.15 222.033C334.15 222.033 318.003 244.693 319.118 251.863C320.233 259.034 326.523 302.112 326.523 302.112L317.334 349.885C317.334 349.885 329.456 356.163 353.019 359.085C376.582 362.006 391.592 354.825 391.592 354.825C391.592 354.825 389.127 333.96 387.131 302.335C385.135 270.709 378.834 259.045 374.574 249.622C370.315 240.199 367.884 237.288 367.884 237.288L334.15 222.033Z" fill="#FF4459" stroke="#504755" stroke-linecap="round" stroke-linejoin="round"/>
<path d="M358.885 323.267C363.993 323.669 369.121 323.758 374.24 323.534L373.895 328.775C364.626 330.408 355.124 330.169 345.949 328.073" stroke="#504755" stroke-linecap="round" stroke-linejoin="round"/>
<path d="M345.949 321.783C345.949 321.783 349.295 322.352 354.291 322.898" stroke="#504755" stroke-linecap="round" stroke-linejoin="round"/>
<path d="M380.039 271.713C380.841 273.574 381.472 275.504 381.924 277.479" stroke="#504755" stroke-linecap="round" stroke-linejoin="round"/>
<path d="M331.977 227.107L356.421 240.735H363.758L361.662 244.95C361.662 244.95 371.698 255.633 377.843 267.085" stroke="#504755" stroke-linecap="round" stroke-linejoin="round"/>
<path d="M428.85 285.608C428.85 285.608 434.247 288.953 435.652 289.5C437.057 290.046 438.462 290.035 439.655 291.117C440.849 292.198 441.06 294.362 442.142 293.347C443.224 292.332 442.789 290.425 441.707 289.243C440.626 288.061 438.462 287.939 437.927 287.292C437.392 286.645 435.697 284.37 435.697 284.37L428.85 285.608Z" stroke="#504755" stroke-linecap="round" stroke-linejoin="round"/>
<path d="M416.916 280.802C416.916 280.802 424.722 276.988 426.562 276.765C428.402 276.542 434.636 278.114 436.877 278.114C439.119 278.114 443.155 277.657 444.951 278.783C446.746 279.91 448.988 285.474 448.988 285.474C448.988 285.474 450.192 288.92 449.757 289.466C449.757 289.466 449.322 291.195 448.787 291.518C448.252 291.842 447.672 291.518 447.382 290.871C446.176 289.055 444.761 287.386 443.167 285.898C442.051 285.14 440.68 285.686 438.951 286.009C437.223 286.333 436.242 286.98 433.978 286.656C431.714 286.333 425.659 285.463 425.324 285.463C424.99 285.463 419.815 287.414 419.815 287.414L416.916 280.802Z" fill="white" stroke="#504755" stroke-linecap="round" stroke-linejoin="round"/>
<path d="M440.246 281.939C440.246 281.939 445.331 283.991 446.513 285.173C447.695 286.355 449.435 289.633 449.112 290.581" stroke="#504755" stroke-linecap="round" stroke-linejoin="round"/>
<path d="M439.711 279.018C439.711 279.018 445.108 280.2 446.301 281.181C447.107 281.933 447.736 282.855 448.141 283.88" stroke="#504755" stroke-linecap="round" stroke-linejoin="round"/>
<path d="M335.042 237.289C335.042 237.289 326.746 237.735 323.612 248.273C320.479 258.811 332.533 277.211 337.518 281.917C342.503 286.623 362.185 314.669 364.65 314.669C367.114 314.669 422.08 290.894 422.08 290.894L418.489 279.006L380.351 285.965L377.663 281.248L375.433 280.356L357.033 247.604" fill="#FF4459"/>
<path d="M335.042 237.289C335.042 237.289 326.746 237.735 323.612 248.273C320.479 258.811 332.533 277.211 337.518 281.917C342.503 286.623 362.185 314.669 364.65 314.669C367.114 314.669 422.08 290.894 422.08 290.894L418.489 279.006L380.351 285.965L377.663 281.248L375.433 280.356L357.033 247.604" stroke="#504755" stroke-linecap="round" stroke-linejoin="round"/>
<path d="M121.279 279.932C121.279 279.932 119.327 293.314 122.003 303.573C124.68 313.832 131.516 340.139 131.27 345.748C130.858 351.081 130.057 356.377 128.873 361.594C128.393 363.824 124.49 374.262 124.49 385.012C124.49 395.762 128.873 432.517 128.873 432.517C128.873 432.517 128.639 435.205 128.393 438.093C128.297 440.857 128.379 443.625 128.639 446.379L128.148 448.085C129.397 450.404 141.831 450.995 148.689 451.252C156.015 451.531 168.36 451.252 171.293 450.036C174.226 448.821 173.244 447.594 171.048 446.379C168.851 445.163 155.937 438.829 154.465 437.602C152.993 436.376 150.083 431.514 150.083 431.514C150.083 431.514 151.544 401.282 151.789 392.026C152.034 382.771 158.123 358.148 158.123 356.676C158.459 354.371 158.951 352.091 159.595 349.852C159.595 349.852 164.223 363.501 164.468 365.464C164.714 367.426 161.781 378.143 164.223 387.889C166.665 397.636 171.873 431.737 171.873 434.658C171.873 437.58 173.088 446.356 173.088 446.356C173.088 446.356 175.53 449.769 177.482 449.769C179.609 449.688 181.727 449.442 183.816 449.033C185.031 448.799 194.298 450.505 197.711 450.505C201.123 450.505 211.605 448.799 212.576 446.602C213.546 444.405 212.096 443.189 210.345 443.189C208.595 443.189 197.421 438.316 195.715 436.61C194.629 435.38 193.947 433.846 193.763 432.216C193.763 432.216 187.819 402.52 187.819 394.959C187.819 387.399 191.968 366.445 191.968 351.089C191.968 335.734 187.819 299.904 187.819 298.678C187.819 297.451 190.986 279.419 190.986 279.419C190.986 279.419 147.83 288.953 121.279 279.932Z" fill="#504755" stroke="#504755" stroke-linecap="round" stroke-linejoin="round"/>
<path d="M142.479 290.414C142.479 290.414 138.587 306.026 134.93 309.918" stroke="white" stroke-linecap="round" stroke-linejoin="round"/>
<path d="M129.588 392.149C129.755 393.844 129.989 395.684 130.302 397.725" stroke="white" stroke-linecap="round" stroke-linejoin="round"/>
<path d="M132.486 296.994C132.486 296.994 131.27 319.665 135.653 331.362C140.035 343.06 132.731 364.27 131.516 370.393C130.612 374.909 129.04 379.158 129.285 387.399" stroke="white" stroke-linecap="round" stroke-linejoin="round"/>
<path d="M162.93 339.28L168.316 321.371L176.122 310.643" stroke="white" stroke-linecap="round" stroke-linejoin="round"/>
<path d="M160.768 346.473L161.782 343.083" stroke="white" stroke-linecap="round" stroke-linejoin="round"/>
<path d="M182.835 173.636C186.135 176.871 189.255 180.284 192.18 183.862C195.715 188.412 202.16 195.861 202.16 195.861C202.488 199.019 203.077 202.145 203.922 205.206C205.572 211.897 208.851 213.67 208.851 213.67C208.851 213.67 207.591 215.064 197.365 212.912C187.139 210.759 183.983 208.618 183.983 208.618L181.195 172.465L182.835 173.636Z" fill="white" stroke="#504755" stroke-linecap="round" stroke-linejoin="round"/>
<path d="M198.626 194.98C198.626 194.98 195.716 206.845 197.366 210.514" stroke="#504755" stroke-linecap="round" stroke-linejoin="round"/>
<path d="M192.437 190.308C192.437 190.308 191.556 204.325 194.668 209.12" stroke="#504755" stroke-linecap="round" stroke-linejoin="round"/>
<path d="M209.99 192.069C209.99 192.069 206.075 191.188 203.923 192.705C201.771 194.222 199.886 193.965 199.886 198.281C199.886 202.596 199.005 209.778 203.176 213.313C207.347 216.848 213.402 215.71 215.164 214.428C216.926 213.146 219.334 209.12 218.833 206.221C218.331 203.321 209.99 192.069 209.99 192.069Z" fill="white" stroke="#504755" stroke-linecap="round" stroke-linejoin="round"/>
<path d="M222.111 142.947C222.111 142.947 221.23 153.552 221.866 155.448C222.501 157.344 224.899 161.024 224.899 163.02C224.899 165.016 218.331 177.517 215.041 183.483C211.751 189.449 207.592 192.404 206.454 196.742C205.317 201.08 208.227 207.102 212.03 208.875C215.833 210.648 216.703 210.258 218.219 209.254C219.736 208.25 230.218 173.123 231.356 167.993C231.724 165.887 232.273 163.817 232.995 161.804C232.995 161.804 236.92 154.601 237.165 152.582C237.411 150.564 233.374 141.431 231.489 142.613C229.605 143.795 228.077 144.375 227.319 144.118C226.56 143.862 226.56 141.598 225.167 141.721C224.074 141.915 223.034 142.333 222.111 142.947Z" fill="white" stroke="#504755" stroke-linecap="round" stroke-linejoin="round"/>
<path d="M228.258 81.47L218.416 82.7466L220.557 99.2574L230.4 97.9809L228.258 81.47Z" fill="#9C9C9C" stroke="#504755" stroke-linecap="round" stroke-linejoin="round"/>
<path d="M220.562 99.2669C220.562 99.2669 220.227 110.864 220.327 116.708C220.581 121.651 221.163 126.572 222.067 131.439L232.717 129.643L230.353 97.9956L220.562 99.2669Z" fill="#9C9C9C" stroke="#504755" stroke-linecap="round" stroke-linejoin="round"/>
<path d="M219.256 91.8734C219.423 93.3789 219.089 94.6501 218.509 94.717C217.929 94.7839 217.316 93.6019 217.149 92.1076C216.981 90.6133 217.316 89.3309 217.896 89.264C218.476 89.1971 219.089 90.368 219.256 91.8734Z" fill="#504755" stroke="#504755" stroke-linecap="round" stroke-linejoin="round"/>
<path d="M232.035 89.9442C232.203 91.4608 231.868 92.7321 231.288 92.799C230.708 92.8659 230.095 91.6839 229.928 90.1896C229.761 88.6953 230.095 87.4017 230.675 87.3348C231.255 87.2679 231.868 88.4165 232.035 89.9442Z" fill="#504755" stroke="#504755" stroke-linecap="round" stroke-linejoin="round"/>
<path d="M242.965 213.391C242.965 213.391 275.092 231.936 282.887 238.538C287.693 242.619 295.522 259.112 293.804 269.16C292.087 279.207 294.92 281.85 295.466 284.694C296.012 287.537 295.098 288.775 291.931 289.366C288.764 289.957 284.002 293.347 285.173 300.294C286.344 307.242 292.433 321.17 297.44 323.713C302.447 326.255 303.383 326.634 304.956 326.032C306.528 325.43 308.435 325.129 308.402 327.961C308.482 329.891 309.109 331.759 310.208 333.347C310.208 333.347 316.955 346.662 319.297 359.286C321.498 370.382 319.896 381.897 314.747 391.971C310.219 400.412 314.078 372.444 311.959 366.11C309.84 359.776 308.736 348.435 298.432 342.313C288.128 336.191 280.59 335.444 275.572 311.446C270.554 287.448 278.705 290.08 281.359 279.72C282.676 274.012 282.723 268.084 281.497 262.355C280.272 256.627 277.803 251.237 274.267 246.567C266.851 237.01 252.778 229.84 248.128 224.476C245.386 221.348 243.595 217.502 242.965 213.391Z" fill="#BABABA" stroke="#504755" stroke-linecap="round" stroke-linejoin="round"/>
<path d="M222.066 131.439L230.53 216.748C230.53 216.748 211.93 230.542 203.042 244.47C194.154 258.398 195.013 268.446 195.916 275.148C196.82 281.85 200.031 291.931 199.674 293.604C199.317 295.276 196.608 297.908 198.559 298.599C200.511 299.291 202.273 296.313 206.577 299.38C210.882 302.447 213.446 310.532 211.997 318.193C210.547 325.854 210.056 337.239 208.038 338.209C206.02 339.18 201.347 337.094 200.667 339.447C199.987 341.8 201.626 342.135 200.923 344.465C200.221 346.796 192.716 357.736 192.482 374.452C192.247 391.168 205.239 418.455 225.936 423.763C246.633 429.072 274.021 430.131 292.22 420.017C300.253 415.536 306.881 408.91 311.365 400.88C315.849 392.849 318.012 383.73 317.612 374.541C316.843 358.137 304.03 341.566 303.751 337.206C303.472 332.846 305.903 327.17 302.524 329.5C299.145 331.831 292.834 329.032 288.54 324.616C284.247 320.2 283.032 311.825 281.515 300.763C279.998 289.701 284.013 289.433 288.708 288.496C293.402 287.56 291.061 287.861 290.135 282.831C289.209 277.802 291.975 270.152 290.135 260.751C288.189 251.529 283.39 243.153 276.419 236.809C270.14 231.367 257.852 225.178 252.878 221.755C249.366 219.232 246.055 216.439 242.975 213.402L232.727 129.655L222.066 131.439Z" fill="#9C9C9C" stroke="#504755" stroke-linecap="round" stroke-linejoin="round"/>
<path d="M262.088 422.582L264.898 443.669" stroke="#504755" stroke-width="2" stroke-linecap="round" stroke-linejoin="round"/>
<path d="M267.157 442.059L263.277 442.485C262.579 442.562 262.076 443.19 262.153 443.888L263.018 451.747C263.094 452.445 263.722 452.948 264.42 452.872L268.3 452.445C268.998 452.368 269.501 451.74 269.424 451.042L268.56 443.183C268.483 442.485 267.855 441.982 267.157 442.059Z" fill="#9C9C9C" stroke="#504755" stroke-linecap="round" stroke-linejoin="round"/>
<path d="M229.237 316.52C229.237 316.52 227.252 317.892 228.223 319.453C228.511 319.802 228.899 320.054 229.335 320.178C229.771 320.301 230.234 320.288 230.662 320.142C231.091 319.995 231.465 319.722 231.734 319.358C232.003 318.993 232.156 318.556 232.17 318.103C232.17 315.717 229.159 312.728 225.925 313.096C222.691 313.464 221.208 318.505 220.417 324.817C219.625 331.128 222.58 341.41 221.364 347.711C220.149 354.011 219.034 353.721 217.082 352.706C216.555 352.484 216.133 352.066 215.905 351.541C215.676 351.016 215.659 350.423 215.856 349.885C215.856 349.885 217.863 347.242 216.056 345.949C214.25 344.655 211.852 345.335 211.105 348.413C210.358 351.491 216.77 354.948 219.301 354.847C221.833 354.747 225.524 351.837 225.758 344.41C225.992 336.983 224.465 327.114 223.974 321.772C223.483 316.431 226.104 312.684 229.237 316.52Z" fill="#504755"/>
<path d="M265.511 312.55C265.511 312.55 268.032 313.364 267.407 315.215C267.202 315.675 266.864 316.062 266.435 316.325C266.007 316.589 265.508 316.717 265.006 316.693C264.503 316.669 264.02 316.494 263.618 316.19C263.217 315.887 262.917 315.469 262.757 314.992C262.088 312.594 264.586 308.703 268.199 308.145C271.812 307.587 274.756 312.238 277.299 318.371C279.841 324.504 279.395 335.734 282.395 341.789C285.394 347.844 286.521 347.175 288.372 345.592C288.629 345.425 288.848 345.208 289.017 344.953C289.186 344.698 289.301 344.411 289.354 344.109C289.408 343.808 289.398 343.499 289.327 343.202C289.256 342.904 289.125 342.624 288.941 342.38C288.941 342.38 286.064 340.306 287.681 338.477C289.298 336.648 292.074 336.637 293.702 339.525C295.33 342.413 289.309 347.755 286.532 348.391C283.755 349.026 278.982 347.164 276.73 339.726C274.477 332.288 273.529 321.884 272.626 316.386C271.723 310.888 267.931 307.766 265.511 312.55Z" fill="#504755"/>
<path d="M231.434 221.219L235.604 292.143L251.595 290.013L243.477 216.224" stroke="#504755" stroke-linecap="round" stroke-linejoin="round"/>
<path d="M235.615 331.719L258.297 329.489C258.536 329.467 258.774 329.538 258.961 329.688C259.149 329.837 259.27 330.054 259.301 330.292V330.392C259.317 330.515 259.307 330.641 259.273 330.76C259.239 330.88 259.181 330.991 259.103 331.088C259.025 331.185 258.928 331.265 258.819 331.324C258.709 331.382 258.589 331.418 258.465 331.429L235.772 333.515C235.649 333.525 235.526 333.511 235.409 333.474C235.291 333.436 235.183 333.376 235.09 333.296C234.996 333.216 234.92 333.118 234.864 333.008C234.809 332.898 234.776 332.779 234.768 332.656C234.762 332.421 234.846 332.192 235.004 332.018C235.162 331.843 235.381 331.736 235.615 331.719Z" stroke="#504755" stroke-linecap="round" stroke-linejoin="round"/>
<path d="M224.152 131.35L240.244 331.307L247.002 371.262" stroke="#DEDEDE" stroke-linecap="round" stroke-linejoin="round"/>
<path d="M227.174 130.926L244.548 331.674L250.804 371.597" stroke="#DEDEDE" stroke-linecap="round" stroke-linejoin="round"/>
<path d="M229.906 130.424L249.209 329.835L255.187 370.56" stroke="#DEDEDE" stroke-linecap="round" stroke-linejoin="round"/>
<path d="M232.715 129.644C232.659 128.283 249.442 290.559 249.442 290.559L258.698 369.802" stroke="#DEDEDE" stroke-linecap="round" stroke-linejoin="round"/>
<path d="M243.891 372.3L263.049 370.337C263.049 370.337 259.224 389.406 260.372 402.542C261.521 415.679 266.773 421.979 265.625 424.41C264.476 426.841 258.254 426.529 257.618 424.745C256.982 422.961 258.477 410.973 255.711 401.594C252.946 392.216 244.682 379.425 243.891 372.3Z" fill="#9C9C9C" stroke="#504755" stroke-linecap="round" stroke-linejoin="round"/>
<path d="M148.812 164.905C148.812 164.905 125.093 189.616 122.183 192.538C119.272 195.46 114.31 206.912 114.968 212.019C115.626 217.127 123.51 261.209 123.51 262.09C123.51 262.97 117.934 280.98 119.517 281.872C121.101 282.764 136.847 289.678 153.284 290.091C169.721 290.503 185.512 287.426 187.954 285.876C190.396 284.326 192.615 282.764 193.061 276.954C193.507 271.145 184.33 184.944 182.579 178.732C180.828 172.521 167.335 163.444 160.399 161.414C153.462 159.385 148.812 164.905 148.812 164.905Z" fill="#FF4459" stroke="#504755" stroke-linecap="round" stroke-linejoin="round"/>
<path d="M153.485 159.362L148.812 164.938C148.812 164.938 155.961 184.933 164.859 192.081C173.758 199.229 178.866 200.69 178.866 200.69C179.535 195.024 179.829 189.321 179.747 183.617C179.446 176.179 179.156 174.283 179.156 174.283L153.485 159.362Z" fill="white" stroke="#504755" stroke-linecap="round" stroke-linejoin="round"/>
<path d="M163.107 189.705L172.029 180.483L179.835 186.505L178.809 200.656C178.809 200.656 166.174 194.768 163.107 189.705Z" stroke="#504755" stroke-linecap="round" stroke-linejoin="round"/>
<path d="M168.07 184.609L172.442 188.111L171.282 196.563L178.865 200.656L179.3 193.653L174.783 187.519L176.088 183.438L172.074 180.483L168.07 184.609Z" fill="#504755" stroke="#504755" stroke-linecap="round" stroke-linejoin="round"/>
<path d="M196.272 140.126C196.272 140.126 198.402 146.025 197.387 149.281C196.373 152.537 194.756 155.805 194.756 157.176C194.756 158.548 196.384 164.079 195.38 165.328C194.986 165.716 194.513 166.016 193.994 166.209C193.475 166.401 192.921 166.481 192.369 166.443C192.369 166.443 188.734 172.721 188.232 173.212L187.73 173.714C187.73 173.714 185.099 178.353 182.589 178.732C180.08 179.111 176.2 176.859 176.2 176.859L172.062 180.494C172.062 180.494 160.275 171.216 157.142 166.443L154.008 161.682C154.008 161.682 152.625 158.671 153.127 157.422C153.629 156.173 154.51 156.039 154.755 155.537C155.001 155.035 157.387 143.126 157.387 143.126C157.387 143.126 164.535 144.374 177.203 142.01C189.871 139.646 194.377 137.75 194.377 137.75L196.272 140.126Z" fill="white" stroke="#504755" stroke-linecap="round" stroke-linejoin="round"/>
<path d="M177.215 141.988C164.547 144.363 157.399 143.103 157.399 143.103C157.399 143.103 155.024 155.013 154.768 155.515C156.886 156.682 159.252 157.328 161.67 157.399C163.148 157.332 164.615 157.123 166.053 156.775C165.799 156.336 165.59 155.873 165.428 155.392C165.306 154.89 164.046 149.627 167.056 148.121C170.067 146.616 170.826 149.493 170.826 150.497C170.826 151.5 168.685 162.284 168.685 162.284C168.685 162.284 170.324 163.666 170.692 163.544C171.06 163.421 175.967 151.634 175.967 151.634L183.862 148.868L182.479 143.348V140.917C180.907 141.241 179.167 141.62 177.215 141.988Z" fill="#504755" stroke="#504755" stroke-linecap="round" stroke-linejoin="round"/>
<path d="M192.437 166.432C192.437 166.432 187.296 165.93 185.802 166.566C184.308 167.202 182.033 168.696 182.791 169.822C183.55 170.949 186.304 170.447 186.304 170.447C187.327 170.704 188.386 170.79 189.438 170.703C190.385 170.447 193.017 168.941 192.437 166.432Z" fill="#504755" stroke="#504755" stroke-linecap="round" stroke-linejoin="round"/>
<path d="M191.511 154.4L191.01 156.786C191.01 156.786 188.779 157.901 187.664 155.905" stroke="#504755" stroke-linecap="round" stroke-linejoin="round"/>
<path d="M194.668 152.014C194.668 152.014 193.162 150.385 189.906 151.512" stroke="#504755" stroke-linecap="round" stroke-linejoin="round"/>
<path d="M176.211 176.848L171.951 173.837L172.955 179.346L176.211 176.848Z" fill="#504755" stroke="#504755" stroke-linecap="round" stroke-linejoin="round"/>
<path d="M157.154 141.966L144.486 146.583C144.486 146.583 159.764 146.583 169.41 146.382C179.056 146.181 199.775 139.948 202.786 138.576C205.797 137.204 208.217 135.364 207.414 135.766C206.611 136.167 194.746 135.967 194.746 135.967C194.746 135.967 193.943 123.299 192.337 121.893C190.731 120.488 174.841 116.463 172.432 117.433C170.023 118.403 156.541 125.674 156.34 126.889C156.14 128.105 157.154 141.966 157.154 141.966Z" fill="#9C9C9C" stroke="#504755" stroke-linecap="round" stroke-linejoin="round"/>
<path d="M194.411 131.918C190.614 133.614 186.658 134.929 182.602 135.844C173.023 138.275 162.997 138.074 156.842 137.55C157.009 140.037 157.154 142.011 157.154 142.011C170.007 143.898 183.129 141.792 194.746 135.978C194.746 135.978 194.668 134.182 194.411 131.918Z" fill="#FF4459" stroke="#504755" stroke-linecap="round" stroke-linejoin="round"/>
<path d="M170.726 260.829L216.19 270.174C216.19 270.174 221.041 263.272 221.699 262.658C222.357 262.045 223.238 261.956 224.71 260.718C226.182 259.48 228.936 256.447 229.46 258.231C229.605 259.066 229.563 259.922 229.335 260.738C229.107 261.554 228.701 262.309 228.144 262.948C227.632 263.182 225.1 264.71 225.1 264.71C225.1 264.71 225.178 265.446 226.416 265.324C227.654 265.201 234.534 268.201 234.534 268.201C234.534 268.201 244.571 272.003 244.437 272.929C244.414 273.26 244.267 273.571 244.025 273.798C243.783 274.026 243.464 274.153 243.132 274.155C242.597 274.155 233.809 271.758 233.809 271.758C233.809 271.758 243.957 275.706 243.846 276.219C243.817 276.48 243.698 276.722 243.508 276.904C243.318 277.085 243.071 277.194 242.809 277.211C242.151 277.211 233.274 274.3 233.274 274.3C233.274 274.3 241.995 278.315 241.682 278.549C241.481 278.77 241.221 278.928 240.932 279.005C240.643 279.082 240.339 279.075 240.054 278.984C239.106 278.728 232.583 276.754 232.583 276.754C232.583 276.754 238.961 279.352 238.917 279.564C238.872 279.776 238.638 280.066 237.802 280.077C236.965 280.088 232.661 279.274 229.516 279.04C225.552 278.419 221.625 277.585 217.751 276.542C217.751 276.542 180.26 279.787 171.395 279.687C162.529 279.586 161.146 278.293 161.146 278.293L170.726 260.829Z" fill="white" stroke="#504755" stroke-linecap="round" stroke-linejoin="round"/>
<path d="M127.111 189.85C127.111 189.85 119.506 199.585 117.867 208.362C116.227 217.138 124.201 233.252 124.201 233.252C124.201 233.252 135.787 260.751 138.619 264.141C140.503 266.353 142.611 268.363 144.909 270.141C144.909 270.141 143.649 273.743 145.545 274.847C147.44 275.951 153.964 277.144 153.964 277.144L166.532 256.101C166.532 256.101 165.517 251.25 163.889 249.209C162.919 248.013 161.735 247.007 160.398 246.243C159.689 245.386 159.061 244.464 158.525 243.489C158.525 243.489 153.083 204.013 150.161 199.719C147.24 195.426 135.564 188.479 127.111 189.85Z" fill="white" stroke="#504755" stroke-linecap="round" stroke-linejoin="round"/>
<path d="M159.283 251.306C159.584 250.726 152.124 274.724 153.54 272.784C154.957 270.844 161.246 258.633 161.514 257.696" stroke="#504755" stroke-linecap="round" stroke-linejoin="round"/>
<path d="M166.242 253.202C166.242 253.202 155.637 276.062 153.975 277.144C152.314 278.225 157.823 281.905 160.12 281.682C162.417 281.459 173.502 262.212 173.87 259.982C174.238 257.751 169.208 252.544 166.242 253.202Z" fill="white" stroke="#504755" stroke-linecap="round" stroke-linejoin="round"/>
<path d="M225.122 139.68C225.122 139.68 220.717 139.858 220.906 141.152C221.096 142.445 222.646 146.003 224.386 146.371C226.125 146.739 227.731 145.635 227.296 144.074C226.861 142.512 225.947 139.49 225.122 139.68Z" fill="white" stroke="#504755" stroke-linecap="round" stroke-linejoin="round"/>
<path d="M235.214 138.208C235.214 138.208 230.899 141.609 231.088 142.334C231.278 143.059 231.724 144.085 232.549 143.996C233.374 143.906 237.143 141.609 237.601 140.226C238.058 138.844 237.043 137.572 235.214 138.208Z" fill="white" stroke="#504755" stroke-linecap="round" stroke-linejoin="round"/>
<path d="M236.497 142.156C236.497 142.156 232.281 145.914 232.192 146.616C232.103 147.319 232.917 148.077 233.843 147.988C234.768 147.899 238.604 145.055 239.162 144.643C239.719 144.23 239.43 141.71 238.972 141.297C238.515 140.884 237.144 141.197 237.144 141.197L236.497 142.156Z" fill="white" stroke="#504755" stroke-linecap="round" stroke-linejoin="round"/>
<path d="M237.142 146.282C237.142 146.282 233.195 149.404 233.373 150.04C233.551 150.675 235.023 151.512 235.391 151.333C235.759 151.155 240.075 149.315 240.622 148.389C240.805 147.867 240.851 147.307 240.756 146.762C240.66 146.217 240.426 145.706 240.075 145.278L239.161 144.542L237.142 146.282Z" fill="white" stroke="#504755" stroke-linecap="round" stroke-linejoin="round"/>
<path d="M239.162 149.582C239.162 149.582 236.318 151.69 236.318 152.158C236.318 152.627 236.318 153.351 237.043 153.53C237.768 153.708 241.504 152.247 241.816 151.511C242.128 150.775 241.905 147.932 239.162 149.582Z" fill="white" stroke="#504755" stroke-linecap="round" stroke-linejoin="round"/>
</svg>
