<svg width="540" height="463" viewBox="0 0 540 463" fill="none" xmlns="http://www.w3.org/2000/svg">
<g opacity="0.1">
<path d="M366.046 6.46176C366.046 6.46176 277.299 -19.6729 189.664 33.1764C102.029 86.0256 57.3477 184.607 19.0097 263.688C-19.3284 342.769 1.9249 420.254 68.3308 452.793C134.737 485.331 180.421 430.307 273.94 423.142C367.459 415.977 392.519 427.625 470.439 372.878C548.36 318.132 563.185 197.125 502.567 111.109C441.949 25.0931 366.046 6.46176 366.046 6.46176Z" fill="#FF4459"/>
<path opacity="0.8" d="M366.046 6.46176C366.046 6.46176 277.299 -19.6729 189.664 33.1764C102.029 86.0256 57.3477 184.607 19.0097 263.688C-19.3284 342.769 1.9249 420.254 68.3308 452.793C134.737 485.331 180.421 430.307 273.94 423.142C367.459 415.977 392.519 427.625 470.439 372.878C548.36 318.132 563.185 197.125 502.567 111.109C441.949 25.0931 366.046 6.46176 366.046 6.46176Z" fill="white"/>
</g>
<path d="M466.724 151.538C466.624 151.537 466.527 151.505 466.446 151.446C438.268 132.475 401.333 129.135 358.541 125.271C330.671 122.753 299.1 119.896 265.023 112.343C179.099 93.3103 131.025 30.5813 130.552 29.9441C130.473 29.8402 130.437 29.7102 130.45 29.5805C130.463 29.4507 130.526 29.3309 130.624 29.2453C130.734 29.1661 130.87 29.1326 131.004 29.1518C131.139 29.1709 131.26 29.2413 131.343 29.348C131.826 29.9749 179.644 92.4162 265.228 111.367C299.275 118.91 330.814 121.756 358.654 124.274C401.549 128.159 438.607 131.468 466.991 150.624C467.104 150.701 467.183 150.819 467.21 150.954C467.237 151.088 467.21 151.228 467.135 151.343C467.085 151.404 467.022 151.453 466.951 151.486C466.88 151.52 466.803 151.538 466.724 151.538Z" fill="#FF4459"/>
<path d="M452.027 167.323C451.924 167.324 451.823 167.291 451.74 167.231C423.561 148.26 386.637 144.92 343.834 141.056C315.964 138.538 284.394 135.681 250.316 128.117C164.393 109.085 116.318 46.3558 115.845 45.6879C115.803 45.6344 115.773 45.5731 115.755 45.5075C115.738 45.4419 115.734 45.3735 115.743 45.3063C115.753 45.2391 115.776 45.1745 115.811 45.1165C115.846 45.0584 115.893 45.0081 115.948 44.9685C116.002 44.928 116.063 44.8985 116.129 44.8818C116.194 44.8651 116.262 44.8613 116.329 44.8709C116.396 44.8804 116.46 44.903 116.518 44.9374C116.576 44.9718 116.627 45.0173 116.667 45.0713C117.14 45.6981 164.968 108.129 250.542 127.09C284.589 134.633 316.128 137.479 343.968 139.997C386.863 143.882 423.921 147.191 452.305 166.347C452.418 166.424 452.497 166.543 452.524 166.677C452.551 166.812 452.524 166.951 452.449 167.066C452.406 167.141 452.345 167.204 452.271 167.248C452.197 167.293 452.114 167.319 452.027 167.323Z" fill="#FF4459"/>
<path d="M437.322 183.098C437.219 183.099 437.118 183.066 437.034 183.005C408.856 164.035 371.931 160.695 329.129 156.831C301.258 154.313 269.688 151.456 235.611 143.892C149.687 124.819 101.613 62.1307 101.14 61.4935C101.099 61.4395 101.07 61.3781 101.053 61.3128C101.036 61.2474 101.033 61.1794 101.042 61.1126C101.052 61.0458 101.074 60.9815 101.109 60.9234C101.143 60.8654 101.189 60.8146 101.243 60.7742C101.297 60.7337 101.358 60.7042 101.423 60.6875C101.489 60.6707 101.557 60.667 101.624 60.6766C101.69 60.6861 101.755 60.7087 101.813 60.7431C101.871 60.7775 101.922 60.8229 101.962 60.8769C102.435 61.5038 150.263 123.935 235.837 142.895C269.884 150.438 301.433 153.285 329.262 155.803C372.157 159.688 409.215 162.997 437.599 182.152C437.712 182.228 437.79 182.345 437.817 182.477C437.844 182.61 437.818 182.748 437.743 182.862C437.699 182.933 437.636 182.992 437.563 183.034C437.489 183.075 437.406 183.097 437.322 183.098Z" fill="#FF4459"/>
<path d="M422.617 198.863C422.515 198.867 422.414 198.838 422.329 198.78C394.15 179.809 357.226 176.47 314.424 172.605C286.564 170.077 254.983 167.231 220.906 159.667C134.982 140.635 86.9075 77.8953 86.4348 77.2684C86.353 77.1594 86.3179 77.0224 86.3372 76.8875C86.3565 76.7526 86.4285 76.6308 86.5376 76.5491C86.6466 76.4673 86.7836 76.4322 86.9185 76.4515C87.0534 76.4707 87.1752 76.5428 87.2569 76.6518C87.7297 77.2787 135.558 139.71 221.132 158.67C255.178 166.213 286.728 169.06 314.557 171.578C357.452 175.452 394.51 178.772 422.905 197.927C423.016 198.004 423.092 198.122 423.117 198.254C423.142 198.387 423.114 198.524 423.038 198.636C422.993 198.707 422.931 198.764 422.857 198.804C422.783 198.843 422.701 198.864 422.617 198.863Z" fill="#FF4459"/>
<path d="M166.191 59.582C166.191 59.582 161.535 61.1954 163.108 62.2642C164.68 63.333 169.901 77.0935 168.822 78.8817C167.743 80.6698 164.361 74.771 162.388 76.7338C160.415 78.6967 163.282 83.5267 166.324 83.167C169.366 82.8074 170.795 79.7757 170.075 75.9733C169.356 72.171 166.9 66.2413 166.592 64.9464C166.283 63.6516 167.671 62.9836 169.808 64.2271C171.946 65.4705 175.707 63.333 176.786 61.0105C177.865 58.6879 176.961 54.7622 176.961 54.7622C176.961 54.7622 177.67 56.7251 174.104 57.6191C170.538 58.5132 167.434 59.0476 166.191 59.582Z" fill="#FF4459"/>
<path d="M145.514 121.386C145.514 121.386 140.869 123 142.431 124.069C143.993 125.137 149.224 138.898 148.155 140.686C147.087 142.474 143.685 136.575 141.722 138.538C139.759 140.501 142.616 145.331 145.648 144.971C148.679 144.612 150.118 141.58 149.409 137.778C148.7 133.975 146.193 127.953 145.833 126.699C145.473 125.446 146.861 124.737 149.049 125.98C151.238 127.223 154.948 125.086 156.017 122.763C157.086 120.441 156.192 116.515 156.192 116.515C156.192 116.515 156.911 118.478 153.335 119.372C149.759 120.266 146.768 120.852 145.514 121.386Z" fill="#FF4459"/>
<path d="M429.799 137.439C427.469 136.255 425.208 134.941 423.026 133.503C419.738 131.304 417.888 132.362 418.361 133.821C418.833 135.281 416.007 145.629 411.794 151.096C407.58 156.564 407.971 150.326 404.795 149.247C401.62 148.168 399.904 151.302 402.339 154.94C404.775 158.578 410.283 157.478 411.013 155.248C411.742 153.018 416.901 143.245 418.432 140.861C419.964 138.477 421.094 138.61 423.869 141.375C425.053 142.625 426.53 143.562 428.166 144.1C429.802 144.638 431.546 144.761 433.241 144.458C433.241 144.458 427.558 155.351 425.821 158.845C424.085 162.339 422.646 166.758 420.087 166.666C417.528 166.573 414.64 161.527 412.606 164.61C410.571 167.693 416.644 172.945 419.912 171.455C423.18 169.965 425.184 163.12 427.61 158.393C430.035 153.666 437.054 141.21 436.633 139.432C436.211 137.655 432.943 139.484 429.799 137.439Z" fill="#FF4459"/>
<path d="M363.905 158.393C362.257 157.555 360.658 156.625 359.116 155.608C356.783 154.056 355.508 154.806 355.817 155.834C356.125 156.861 354.152 164.189 351.172 168.053C348.191 171.917 348.469 167.508 346.218 166.748C343.968 165.987 342.765 168.207 344.492 170.776C346.218 173.345 350.103 172.564 350.658 170.992C352.199 167.505 353.949 164.114 355.899 160.838C356.988 159.174 357.79 159.246 359.753 161.198C360.593 162.079 361.638 162.738 362.794 163.116C363.951 163.495 365.183 163.581 366.381 163.366C366.381 163.366 362.363 171.064 361.13 173.52C359.897 175.976 358.889 179.121 357.019 179.059C355.149 178.997 353.176 175.401 351.737 177.62C350.298 179.84 354.594 183.519 356.875 182.461C359.157 181.402 360.606 176.572 362.312 173.212C364.018 169.851 368.992 161.064 368.693 159.852C368.395 158.639 366.155 159.842 363.905 158.393Z" fill="#FF4459"/>
<path d="M380.121 173.469C378.883 172.849 377.678 172.163 376.514 171.413C374.757 170.242 373.791 170.807 374.027 171.578C374.264 172.349 372.773 177.877 370.523 180.827C368.272 183.776 368.467 180.406 366.792 179.799C365.117 179.193 364.182 180.899 365.487 182.831C366.792 184.763 369.721 184.187 370.101 182.995C371.27 180.368 372.591 177.812 374.058 175.339C374.88 174.085 375.486 174.137 376.966 175.617C377.598 176.282 378.385 176.78 379.257 177.065C380.129 177.35 381.058 177.414 381.961 177.251C381.961 177.251 378.929 183.057 378.004 184.907C377.079 186.757 376.309 189.13 374.921 189.079C373.534 189.028 372.023 186.325 370.934 188C369.845 189.675 373.092 192.44 374.829 191.648C376.565 190.857 377.645 187.209 378.939 184.681C380.234 182.153 383.985 175.524 383.759 174.568C383.533 173.613 381.796 174.558 380.121 173.469Z" fill="#FF4459"/>
<path d="M142.585 59.4588C140.946 58.6214 139.355 57.6951 137.817 56.6841C135.484 55.122 134.21 55.8723 134.518 56.8999C134.826 57.9276 132.853 65.2549 129.873 69.1292C126.893 73.0035 127.17 68.5743 124.919 67.8138C122.669 67.0533 121.467 69.2834 123.193 71.8423C124.919 74.4012 128.804 73.6304 129.359 72.0581C130.9 68.5712 132.65 65.1805 134.6 61.9047C135.689 60.2399 136.491 60.3118 138.454 62.2644C139.284 63.1369 140.317 63.7912 141.461 64.1694C142.604 64.5476 143.824 64.6381 145.01 64.4327C145.01 64.4327 140.982 72.13 139.759 74.5861C138.536 77.0423 137.519 80.187 135.648 80.1253C133.778 80.0636 131.805 76.4668 130.366 78.6866C128.927 80.9063 133.223 84.5854 135.505 83.5269C137.786 82.4684 139.235 77.6383 140.941 74.2778C142.647 70.9174 147.621 62.1205 147.323 60.9181C147.025 59.7157 144.805 60.9078 142.585 59.4588Z" fill="#FF4459"/>
<path d="M470.393 261.694C470.29 261.694 470.189 261.661 470.105 261.602C437.97 239.959 395.856 236.157 347.093 231.748C315.327 228.87 279.328 225.582 240.441 217.001C189.253 205.696 150.304 180.734 126.647 161.825C101.007 141.323 87.2871 123.257 87.1535 123.082C87.1131 123.028 87.0836 122.966 87.0669 122.901C87.0501 122.836 87.0464 122.768 87.0559 122.701C87.0655 122.634 87.0881 122.57 87.1225 122.512C87.1569 122.454 87.2023 122.403 87.2563 122.363C87.3103 122.322 87.3717 122.293 87.4371 122.276C87.5025 122.259 87.5705 122.255 87.6373 122.265C87.7041 122.274 87.7683 122.297 87.8264 122.331C87.8845 122.366 87.9352 122.411 87.9757 122.465C88.1093 122.64 101.767 140.624 127.315 161.044C150.89 179.881 189.684 204.71 240.657 216.004C279.482 224.606 315.451 227.853 347.185 230.72C396.092 235.149 438.319 238.942 470.68 260.749C470.794 260.826 470.872 260.945 470.899 261.079C470.926 261.214 470.899 261.353 470.824 261.468C470.775 261.537 470.711 261.594 470.636 261.633C470.561 261.673 470.477 261.693 470.393 261.694Z" fill="#FF4459"/>
<path d="M453.631 279.679C453.528 279.679 453.427 279.647 453.344 279.586C421.198 257.943 379.084 254.141 330.331 249.732C298.566 246.855 262.557 243.566 223.669 234.985C172.491 223.681 133.543 198.719 109.886 179.809C84.2453 159.307 70.5259 141.241 70.382 141.066C70.3028 140.956 70.2693 140.82 70.2885 140.686C70.3076 140.552 70.378 140.43 70.4848 140.347C70.5938 140.265 70.7308 140.23 70.8657 140.249C71.0006 140.269 71.1224 140.341 71.2041 140.45C71.3377 140.624 85.0058 158.609 110.554 179.028C134.118 197.866 172.923 222.694 223.896 233.988C262.721 242.59 298.689 245.837 330.424 248.705C379.321 253.134 421.558 256.926 453.909 278.733C454.002 278.793 454.073 278.882 454.112 278.986C454.15 279.09 454.154 279.203 454.123 279.309C454.092 279.416 454.027 279.509 453.939 279.576C453.85 279.642 453.742 279.678 453.631 279.679Z" fill="#FF4459"/>
<path d="M436.87 297.663C436.767 297.662 436.667 297.63 436.583 297.57C404.437 275.887 362.323 272.125 313.55 267.717C281.784 264.839 245.785 261.551 206.898 252.97C155.71 241.665 116.761 216.703 93.104 197.794C67.4122 177.292 53.7442 159.225 53.6106 159.051C53.5701 158.997 53.5406 158.935 53.5239 158.87C53.5071 158.805 53.5034 158.736 53.513 158.67C53.5225 158.603 53.5451 158.539 53.5795 158.481C53.6139 158.422 53.6594 158.372 53.7133 158.331C53.7673 158.291 53.8288 158.261 53.8941 158.245C53.9595 158.228 54.0275 158.224 54.0943 158.234C54.1611 158.243 54.2254 158.266 54.2834 158.3C54.3415 158.335 54.3922 158.38 54.4327 158.434C54.5663 158.609 68.2241 176.593 93.772 197.013C117.347 215.85 156.141 240.679 207.114 251.973C245.939 260.574 281.908 263.822 313.642 266.689C362.549 271.118 404.776 274.91 437.138 296.717C437.251 296.795 437.329 296.913 437.356 297.048C437.383 297.182 437.356 297.322 437.281 297.437C437.235 297.503 437.173 297.558 437.102 297.597C437.031 297.637 436.952 297.659 436.87 297.663Z" fill="#FF4459"/>
<path d="M420.098 315.647C419.995 315.648 419.894 315.615 419.811 315.554C387.665 293.912 345.551 290.109 296.798 285.7C265.033 282.823 229.023 279.534 190.136 270.953C138.958 259.649 100.009 234.687 76.3525 215.778C50.7121 195.276 36.9927 177.209 36.8488 177.035C36.7696 176.925 36.7361 176.788 36.7553 176.654C36.7744 176.52 36.8448 176.399 36.9516 176.315C37.0606 176.233 37.1976 176.198 37.3325 176.218C37.4674 176.237 37.5892 176.309 37.6709 176.418C37.8045 176.593 51.4726 194.577 77.0205 214.997C100.585 233.834 139.39 258.662 190.362 269.957C229.188 278.558 265.156 281.806 296.891 284.673C345.787 289.102 388.025 292.894 420.386 314.701C420.498 314.78 420.574 314.9 420.599 315.034C420.624 315.168 420.596 315.307 420.52 315.421C420.473 315.49 420.41 315.546 420.337 315.586C420.263 315.625 420.182 315.646 420.098 315.647Z" fill="#FF4459"/>
<path d="M140.48 218.676C140.48 218.676 135.177 220.515 137.006 221.759C138.835 223.002 144.755 238.664 143.532 240.709C142.309 242.754 138.394 236.023 136.194 238.263C133.995 240.503 137.222 246.001 140.675 245.59C144.128 245.179 145.813 241.726 144.96 237.441C144.107 233.156 141.292 226.239 140.85 224.811C140.408 223.382 142.073 222.571 144.518 223.999C146.964 225.428 151.239 222.971 152.462 220.33C153.685 217.689 152.668 213.198 152.668 213.198C152.668 213.198 153.48 215.439 149.41 216.456C145.341 217.473 141.929 218.069 140.48 218.676Z" fill="#FF4459"/>
<path d="M375.733 220.516C375.733 220.516 370.441 222.355 372.27 223.599C374.099 224.842 380.018 240.504 378.796 242.539C377.573 244.573 373.657 237.852 371.458 240.093C369.259 242.333 372.486 247.841 375.939 247.43C379.392 247.019 381.077 243.556 380.214 239.281C379.35 235.006 376.545 228.079 376.103 226.651C375.661 225.222 377.326 224.41 379.772 225.839C382.218 227.267 386.493 224.811 387.716 222.17C388.939 219.529 387.921 215.038 387.921 215.038C387.921 215.038 388.733 217.278 384.664 218.296C380.594 219.313 377.162 219.909 375.733 220.516Z" fill="#FF4459"/>
<path d="M350.668 272.341C350.668 272.341 345.366 274.18 347.205 275.424C349.045 276.667 354.944 292.329 353.721 294.384C352.498 296.44 348.634 289.698 346.383 291.938C344.132 294.179 347.411 299.677 350.874 299.266C354.337 298.855 355.961 295.402 355.149 291.116C354.337 286.831 351.48 279.915 351.038 278.486C350.597 277.058 352.261 276.246 354.707 277.674C357.153 279.103 361.438 276.647 362.661 274.006C363.884 271.364 362.857 266.874 362.857 266.874C362.857 266.874 363.679 269.114 359.599 270.131C355.519 271.149 352.097 271.776 350.668 272.341Z" fill="#FF4459"/>
<path d="M113.575 187.835C110.923 186.498 108.347 185.016 105.857 183.396C102.096 180.878 100.041 182.08 100.534 183.756C101.027 185.431 97.8518 197.208 93.0526 203.456C88.2533 209.704 88.685 202.562 85.0676 201.339C81.4502 200.116 79.4873 203.703 82.2723 207.834C85.0573 211.965 91.3261 210.722 92.1482 208.183C92.9703 205.645 98.8692 194.505 100.606 191.812C102.343 189.12 103.689 189.243 106.772 192.398C108.123 193.819 109.806 194.883 111.67 195.493C113.534 196.102 115.52 196.24 117.449 195.892C117.449 195.892 111.016 208.265 109.043 212.222C107.07 216.179 105.426 221.255 102.497 221.152C99.568 221.05 96.3308 215.254 93.9672 218.83C91.6036 222.406 98.5814 228.336 102.302 226.64C106.022 224.945 108.324 217.145 111.078 211.749C113.832 206.354 121.848 192.162 121.355 190.168C120.861 188.175 117.151 190.168 113.575 187.835Z" fill="#FF4459"/>
<path d="M413.973 247.029C412.098 246.071 410.276 245.011 408.516 243.854C405.865 242.076 404.406 242.929 404.755 244.111C405.104 245.292 402.864 253.627 399.463 258.036C396.061 262.444 396.379 257.409 393.821 256.545C391.262 255.682 389.874 258.221 391.837 261.139C393.8 264.058 398.25 263.194 398.825 261.386C400.585 257.409 402.582 253.541 404.806 249.804C406.04 247.913 406.965 247.995 409.205 250.225C410.161 251.23 411.351 251.982 412.67 252.413C413.989 252.843 415.393 252.939 416.758 252.692C416.758 252.692 412.206 261.499 410.777 264.274C409.349 267.048 408.218 270.655 406.142 270.583C404.066 270.511 401.754 266.411 400.11 268.949C398.466 271.488 403.378 275.67 406.009 274.468C408.64 273.266 410.263 267.747 412.175 263.934C414.086 260.122 419.79 250.081 419.451 248.643C419.112 247.204 416.512 248.673 413.973 247.029Z" fill="#FF4459"/>
<path d="M432.431 264.212C431.017 263.493 429.644 262.693 428.32 261.818C426.316 260.482 425.237 261.129 425.484 262.013C425.731 262.897 424.056 269.207 421.497 272.516C418.938 275.825 419.164 272.043 417.242 271.385C415.32 270.728 414.262 272.649 415.752 274.848C417.242 277.048 420.572 276.39 421.014 275.044C422.342 272.045 423.849 269.128 425.525 266.309C426.45 264.88 427.149 264.942 428.834 266.627C429.555 267.384 430.453 267.95 431.447 268.274C432.44 268.599 433.499 268.672 434.528 268.487C434.528 268.487 431.075 275.105 430.016 277.212C428.958 279.319 428.094 282.032 426.532 281.97C424.97 281.909 423.223 278.826 421.99 280.737C420.757 282.649 424.446 285.803 426.43 284.848C428.413 283.892 429.636 279.781 431.105 276.904C432.575 274.026 436.85 266.463 436.593 265.384C436.336 264.305 434.343 265.456 432.431 264.212Z" fill="#FF4459"/>
<path d="M100.821 156.779C98.9432 155.821 97.1213 154.757 95.3636 153.593C92.7019 151.816 91.2529 152.669 91.592 153.85C91.9312 155.032 89.7011 163.367 86.3098 167.786C82.9185 172.205 83.2268 167.148 80.6576 166.285C78.0884 165.422 76.7114 167.96 78.6845 170.879C80.6576 173.797 85.0869 172.934 85.6727 171.126C87.4257 167.149 89.4232 163.284 91.6537 159.554C92.8869 157.653 93.8015 157.735 96.0419 159.965C96.9977 160.97 98.1885 161.722 99.507 162.152C100.826 162.583 102.23 162.679 103.595 162.431C103.595 162.431 99.0118 171.208 97.6142 174.013C96.2166 176.819 95.0553 180.395 92.9794 180.323C90.9035 180.251 88.6015 176.151 86.9572 178.689C85.313 181.228 90.215 185.41 92.8458 184.208C95.4766 183.005 97.1004 177.497 99.0118 173.674C100.923 169.851 106.627 159.821 106.288 158.393C105.949 156.964 103.349 158.423 100.821 156.779Z" fill="#FF4459"/>
<path d="M90.5448 357.176C90.5448 357.176 63.3013 309.368 69.5803 297.211C75.8594 285.054 91.9219 306.933 91.9219 306.933C91.9219 306.933 77.9559 262.363 85.6326 242.919C93.3093 223.476 106.577 242.919 107.275 256.69C107.974 270.461 104.48 293.974 104.48 293.974C104.48 293.974 110.071 245.344 123.328 259.937C136.585 274.53 106.577 323.16 106.577 323.16C106.577 323.16 126.822 311.855 126.102 326.407C125.383 340.959 101.695 353.99 101.695 353.99" fill="#FF4459"/>
<path d="M90.7504 348.266C90.7504 348.266 65.5622 324.763 77.8326 314.229C90.103 303.695 96.567 325.533 96.567 325.533C96.567 325.533 83.0017 258.314 104.932 255.878C126.863 253.442 110.749 314.229 110.749 314.229C110.749 314.229 129.483 288.301 128.219 309.368C126.955 330.435 99.1567 348.266 99.1567 348.266" stroke="#504755" stroke-miterlimit="10"/>
<path d="M103.134 343.991L86.1055 325.544" stroke="#504755" stroke-miterlimit="10"/>
<path d="M99.5781 345.409L104.192 291.487" stroke="#504755" stroke-miterlimit="10"/>
<path d="M98.8691 341.503L114.13 321.289" stroke="#504755" stroke-miterlimit="10"/>
<path d="M120.934 337.742H73.8457L78.5524 393.288H116.227L120.934 337.742Z" fill="#504755"/>
<path d="M204.616 272.218C204.616 272.218 209.312 399.351 204.616 422.957C199.919 446.562 179.828 448.34 133.778 444.805C87.7285 441.27 19.82 434.148 50.5166 421.816C81.2131 409.484 172.111 412.372 164.434 420.048C156.757 427.725 114.263 425.361 101.869 420.644C89.4756 415.927 151.444 400.574 184.504 404.705C217.565 408.836 235.888 423.594 315.543 444.25C395.198 464.906 453.076 441.886 451.308 425.957C449.541 410.029 399.37 409.381 381.067 409.381" stroke="#504755" stroke-width="2" stroke-linecap="round" stroke-linejoin="round"/>
<path d="M296.078 344.401L321.164 337.228L398.876 342.757L384.468 350.423L296.078 344.401Z" fill="#666666" stroke="#504755" stroke-linecap="round" stroke-linejoin="round"/>
<path d="M398.877 342.757L398.26 425.433L383.092 437.816L384.469 350.423L398.877 342.757Z" fill="#2B2B2B" stroke="#504755" stroke-linecap="round" stroke-linejoin="round"/>
<path d="M298.957 424.775L300.139 427.478L304.527 428.146L307.004 425.782L298.957 424.775Z" fill="#504755" stroke="#504755" stroke-linecap="round" stroke-linejoin="round"/>
<path d="M372.783 436.08L373.955 438.782L378.343 439.45L380.82 437.087L372.783 436.08Z" fill="#504755" stroke="#504755" stroke-linecap="round" stroke-linejoin="round"/>
<path d="M296.079 344.401L294.877 423.912L383.092 437.817L384.469 350.424L296.079 344.401Z" fill="#404040" stroke="#504755" stroke-linecap="round" stroke-linejoin="round"/>
<path d="M303.097 351.914L302.09 418.64L376.103 430.304L377.264 356.97L303.097 351.914Z" fill="black" stroke="#504755" stroke-linecap="round" stroke-linejoin="round"/>
<path d="M306.387 417.201L376.135 428.197L377.265 356.97L307.363 352.201L306.387 417.201Z" fill="#504755" stroke="#504755" stroke-linecap="round" stroke-linejoin="round"/>
<path d="M307.178 364.883L377.039 371.316L377.265 356.97L307.363 352.201L307.178 364.883Z" fill="#FF4459" stroke="#504755" stroke-linecap="round" stroke-linejoin="round"/>
<path d="M319.151 358.593C319.151 359.254 318.955 359.9 318.588 360.449C318.221 360.998 317.699 361.426 317.089 361.679C316.478 361.932 315.807 361.998 315.159 361.869C314.511 361.74 313.916 361.422 313.449 360.955C312.982 360.488 312.664 359.893 312.535 359.245C312.406 358.597 312.472 357.925 312.725 357.315C312.978 356.705 313.406 356.183 313.955 355.816C314.504 355.449 315.15 355.253 315.811 355.253C316.25 355.252 316.685 355.338 317.09 355.505C317.496 355.672 317.865 355.918 318.175 356.229C318.486 356.539 318.732 356.908 318.899 357.314C319.066 357.719 319.152 358.154 319.151 358.593Z" fill="#504755" stroke="#504755" stroke-linecap="round" stroke-linejoin="round"/>
<path d="M328.225 362.889C330.069 362.889 331.565 361.394 331.565 359.549C331.565 357.704 330.069 356.209 328.225 356.209C326.38 356.209 324.885 357.704 324.885 359.549C324.885 361.394 326.38 362.889 328.225 362.889Z" fill="#504755" stroke="#504755" stroke-linecap="round" stroke-linejoin="round"/>
<path d="M343.969 360.505C343.969 361.166 343.773 361.811 343.406 362.361C343.039 362.91 342.517 363.338 341.907 363.591C341.297 363.843 340.625 363.91 339.977 363.781C339.33 363.652 338.734 363.334 338.267 362.867C337.8 362.4 337.482 361.804 337.353 361.157C337.224 360.509 337.291 359.837 337.543 359.227C337.796 358.617 338.224 358.095 338.773 357.728C339.323 357.361 339.968 357.165 340.629 357.165C341.068 357.164 341.503 357.249 341.909 357.417C342.315 357.584 342.683 357.83 342.994 358.14C343.304 358.451 343.55 358.819 343.717 359.225C343.885 359.631 343.97 360.066 343.969 360.505Z" fill="#504755" stroke="#504755" stroke-linecap="round" stroke-linejoin="round"/>
<path d="M356.383 361.461C356.383 362.121 356.187 362.767 355.82 363.316C355.453 363.865 354.931 364.293 354.321 364.546C353.711 364.799 353.039 364.865 352.391 364.736C351.744 364.607 351.148 364.289 350.681 363.822C350.214 363.355 349.896 362.76 349.767 362.112C349.638 361.464 349.705 360.793 349.957 360.182C350.21 359.572 350.638 359.051 351.187 358.684C351.737 358.317 352.382 358.121 353.043 358.121C353.482 358.119 353.917 358.205 354.323 358.372C354.729 358.539 355.097 358.785 355.408 359.096C355.718 359.406 355.964 359.775 356.132 360.181C356.299 360.587 356.384 361.022 356.383 361.461Z" fill="#504755" stroke="#504755" stroke-linecap="round" stroke-linejoin="round"/>
<path d="M330.865 342.233V340.177L334.719 339.191L362.836 341.164L362.507 343.137L359.794 344.391L330.865 342.233Z" fill="#504755"/>
<path d="M300.252 319.182C300.252 319.182 294.25 329.695 295 332.326C295.751 334.957 308.144 337.207 313.776 340.958C319.408 344.709 324.659 345.84 328.04 344.709C331.421 343.579 334.422 343.959 332.922 339.828C331.421 335.697 326.91 336.457 323.539 334.577C320.168 332.696 310.755 322.748 310.004 321.618C309.254 320.487 300.252 319.182 300.252 319.182Z" fill="#FF4459" stroke="#504755" stroke-linecap="round" stroke-linejoin="round"/>
<path d="M311.237 323.334C311.237 323.334 309.336 327.136 308.072 327.445" stroke="#504755" stroke-linecap="round" stroke-linejoin="round"/>
<path d="M313.456 325.554C313.456 325.554 313.456 329.346 311.555 330.302" stroke="#504755" stroke-linecap="round" stroke-linejoin="round"/>
<path d="M317.248 329.665C317.248 329.665 317.886 330.61 315.984 332.193" stroke="#504755" stroke-linecap="round" stroke-linejoin="round"/>
<path d="M320.743 332.511C320.743 332.511 320.425 332.83 318.523 334.412" stroke="#504755" stroke-linecap="round" stroke-linejoin="round"/>
<path d="M324.617 335.07C324.046 335.435 323.55 335.906 323.157 336.457C322.12 337.797 321.356 339.326 320.907 340.959C316.731 337.895 312.188 335.368 307.383 333.436C303.499 331.821 299.478 330.555 295.369 329.654C295.032 330.498 294.905 331.412 294.999 332.316C295.749 334.937 308.143 337.197 313.775 340.948C319.406 344.699 324.658 345.83 328.039 344.699C331.42 343.569 334.421 343.949 332.92 339.818C331.574 336.129 327.813 336.334 324.617 335.07Z" fill="white" stroke="#504755" stroke-linecap="round" stroke-linejoin="round"/>
<path d="M188.121 165.802L182.859 191.288L185.696 190.877L192.571 167.827L188.121 165.802Z" fill="#504755" stroke="#504755" stroke-linecap="round" stroke-linejoin="round"/>
<path d="M230.656 427.006C231.243 429.197 232.056 431.322 233.081 433.346C234.304 435.299 251.96 444.651 250.973 449.029C250.603 450.724 249.257 453.201 241.169 453.694C233.081 454.187 225.323 448.134 221.561 446.089C215.693 442.914 214.696 441.434 215.395 438.248C216.094 435.062 219.074 424.272 219.074 424.272C222.836 425.56 226.715 426.476 230.656 427.006Z" fill="#FF4459" stroke="#504755" stroke-linecap="round" stroke-linejoin="round"/>
<path d="M223.904 433.449C225.006 432.566 226.275 431.915 227.635 431.535C228.995 431.155 230.418 431.055 231.817 431.239" stroke="#504755" stroke-linecap="round" stroke-linejoin="round"/>
<path d="M226.115 435.35C226.115 435.35 229.918 432.596 233.083 433.346" stroke="#504755" stroke-linecap="round" stroke-linejoin="round"/>
<path d="M229.279 437.888C229.279 437.888 234.027 435.031 236.874 436.614" stroke="#504755" stroke-linecap="round" stroke-linejoin="round"/>
<path d="M233.082 440.417C233.082 440.417 237.193 438.197 240.358 439.153" stroke="#504755" stroke-linecap="round" stroke-linejoin="round"/>
<path d="M221.798 433.459C221.798 435.288 220.925 436.778 219.846 436.778C218.767 436.778 217.883 435.288 217.883 433.459C217.883 431.63 218.756 430.15 219.846 430.15C220.935 430.15 221.798 431.64 221.798 433.459Z" fill="white" stroke="#504755" stroke-linecap="round" stroke-linejoin="round"/>
<path d="M247.13 443.51C244.951 443.51 241.663 443.911 239.936 446.089C237.234 449.522 236.997 450.508 236.997 450.508C232.654 447.426 228.065 444.703 223.278 442.369C220.373 441.064 217.817 439.092 215.817 436.614C215.653 437.241 215.519 437.786 215.426 438.207C214.697 441.393 215.694 442.873 221.592 446.048C225.354 448.104 233.113 454.136 241.2 453.653C249.288 453.17 250.634 450.683 251.004 448.987C251.302 447.58 249.596 445.586 247.13 443.51Z" fill="white" stroke="#504755" stroke-linecap="round" stroke-linejoin="round"/>
<path d="M242.279 87.5142C242.279 87.5142 259.955 89.7237 262.833 96.0336C265.71 102.343 277.354 153.48 278.299 156.317C279.245 159.153 302.912 164.209 317.125 164.209C331.337 164.209 325.644 165.792 321.235 168.628C316.827 171.465 303.559 174.63 289.984 176.521C276.408 178.412 267.262 177.148 263.162 171.156C259.061 165.165 253.008 136.123 248.908 116.597C244.807 97.0715 242.279 87.5142 242.279 87.5142Z" fill="white" stroke="#504755" stroke-linecap="round" stroke-linejoin="round"/>
<path d="M262.792 96.0438C259.955 89.7339 242.238 87.5244 242.238 87.5244C242.238 87.5244 244.756 96.9893 248.867 116.566C250.203 122.959 251.755 130.368 253.368 137.654C254.694 137.438 256.235 137.151 258.013 136.76C262.401 135.804 268.043 132.557 271.835 130.121C268.331 115.415 264.302 99.394 262.792 96.0438Z" fill="#FF4459" stroke="#504755" stroke-linecap="round" stroke-linejoin="round"/>
<path d="M252.115 131.735C252.876 135.28 253.667 138.867 254.469 142.361C261.194 140.845 267.431 137.665 272.607 133.112C271.888 130.142 271.148 127.069 270.398 124.027C264.997 128.003 258.732 130.645 252.115 131.735Z" fill="#504755" stroke="#504755" stroke-linecap="round" stroke-linejoin="round"/>
<path d="M340.135 152.617C340.135 152.617 343.464 145.424 343.824 145.002C344.184 144.581 352.58 143.975 350.37 146.903C350.083 147.273 344.831 147.993 344.831 147.993L343.577 150.942L340.135 152.617Z" fill="white" stroke="#504755" stroke-linecap="round" stroke-linejoin="round"/>
<path d="M346.744 222.602C335.707 212.181 295.298 210.27 278.917 207.135C274.951 206.375 271.796 205.686 269.268 205.08C264.458 182.728 252.599 139.72 250.513 116.546C249.999 110.822 247.769 84.1537 237.153 86.7434C216.599 91.7687 180.631 102.025 179.367 128.035C178.339 148.989 187.044 171.269 190.887 191.648C192.799 201.822 194.587 210.362 196.406 217.494H196.252C196.252 217.494 213.609 296.09 213.609 309.029C213.609 321.967 211.081 328.914 210.454 347.854C209.827 366.794 218.09 426.985 219.98 428.218C221.871 429.451 225.972 429.482 227.873 428.845C229.774 428.208 230.082 429.164 230.709 426.954C231.336 424.745 238.931 381.572 241.12 335.81C243.309 290.048 246.751 256.001 260.317 246.536C273.882 237.071 328.811 238.315 329.171 245.272C329.53 252.229 298.135 317.918 299.409 319.182C300.683 320.446 307.631 322.337 309.193 321.71C310.755 321.083 340.434 273.101 349.909 256.689C359.384 240.278 357.791 233.012 346.744 222.602Z" fill="#FF4459" stroke="#504755" stroke-linecap="round" stroke-linejoin="round"/>
<path d="M237.1 86.7949C225.878 89.5388 210.062 93.855 197.812 101.429C202.725 108.551 216.043 126.72 225.642 129.053C236.946 131.797 241.787 99.538 240.749 87.1135C239.609 86.5757 238.316 86.4627 237.1 86.7949Z" fill="#504755" stroke="#504755" stroke-linecap="round" stroke-linejoin="round"/>
<path d="M237.502 81.6564C237.502 81.6564 244.778 137.87 265.002 166.953L270.655 171.002C271.682 171.002 252.629 128.025 243.935 81.5947L237.502 81.6564Z" fill="#504755" stroke="#504755" stroke-linecap="round" stroke-linejoin="round"/>
<path d="M236.196 94.153C235.024 92.6012 233.863 91.3989 232.815 89.9601C229.639 85.5617 230.862 76.1893 234.48 72.9213C234.176 72.249 233.811 71.6058 233.39 70.9996C229.28 65.3679 213.063 68.2454 208.911 72.8699C209.971 74.7256 210.878 76.664 211.624 78.666C212.652 81.8107 213.526 85.3459 212.858 88.6653C212.005 92.9609 208.521 94.523 205.51 97.2052C208.942 103.053 218.51 116.248 222.744 118.262C227.769 120.708 234.644 100.155 236.196 94.153Z" fill="white" stroke="#504755" stroke-linecap="round" stroke-linejoin="round"/>
<path d="M231.52 77.3508C232.131 75.7124 233.202 74.2851 234.603 73.2401C239.351 70.2701 250.943 66.4061 253.913 60.7641C254.21 57.7259 253.889 54.659 252.969 51.7483C252.049 48.8376 250.549 46.1434 248.559 43.8281C241.735 35.5143 228.653 31.0747 218.109 34.5071C204.256 39.0494 201.225 51.8542 204.061 61.3705C205.654 66.7144 208.418 72.1096 210.227 76.0045C213.218 76.7855 217.945 77.1555 223.361 77.4124C226.08 77.541 228.804 77.5204 231.52 77.3508Z" fill="#504755" stroke="#504755" stroke-linecap="round" stroke-linejoin="round"/>
<path d="M221.747 71.3797C221.747 71.3797 219.784 60.7742 215.673 60.7742C211.563 60.7742 209.651 70.6295 211.563 75.5624C213.474 80.4952 217.04 78.5734 217.04 78.5734C218.394 81.7575 220.009 84.8236 221.87 87.7403C224.07 90.7513 231.387 97.8937 239.803 97.8937C243.359 97.8937 248.292 79.8169 249.391 72.6951C250.491 65.5734 250.481 62.5726 248.569 56.8176C246.658 51.0627 238.704 54.6287 231.859 59.5512C227.635 62.6756 224.177 66.7206 221.747 71.3797Z" fill="white" stroke="#504755" stroke-linecap="round" stroke-linejoin="round"/>
<path d="M226.68 58.4106C226.68 58.4106 235.405 55.8825 243.122 64.6588C250.624 73.1988 259.432 68.2865 262.535 63.364C267.427 55.6153 273.151 60.8976 273.151 51.4533C273.151 42.009 266.821 41.2896 260.326 43.0572C253.831 44.8248 257.376 33.6129 248.518 32.4311C239.659 31.2492 237.306 36.5417 234.942 38.3402" fill="#504755"/>
<path d="M226.68 58.4106C226.68 58.4106 235.405 55.8825 243.122 64.6588C250.624 73.1988 259.432 68.2865 262.535 63.364C267.427 55.6153 273.151 60.8976 273.151 51.4533C273.151 42.009 266.821 41.2896 260.326 43.0572C253.831 44.8248 257.376 33.6129 248.518 32.4311C239.659 31.2492 237.306 36.5417 234.942 38.3402" stroke="#504755" stroke-linecap="round" stroke-linejoin="round"/>
<path d="M249.113 67.3203C249.113 67.3203 246.811 67.5053 246.616 69.2421C246.421 70.9788 247.572 77.299 247.192 80.5464C246.811 83.7939 242.588 83.0437 240.471 81.3172" fill="white"/>
<path d="M249.113 67.3203C249.113 67.3203 246.811 67.5053 246.616 69.2421C246.421 70.9788 247.572 77.299 247.192 80.5464C246.811 83.7939 242.588 83.0437 240.471 81.3172" stroke="#504755" stroke-linecap="round" stroke-linejoin="round"/>
<path d="M239.557 65.9743C239.557 65.9743 234.419 62.1411 231.336 66.3545Z" fill="white"/>
<path d="M239.557 65.9743C239.557 65.9743 234.419 62.1411 231.336 66.3545" stroke="#504755" stroke-linecap="round" stroke-linejoin="round"/>
<path d="M238.745 69.0469L238.56 71.5441C238.56 71.5441 234.337 73.0753 231.654 70.5781" fill="white"/>
<path d="M238.745 69.0469L238.56 71.5441C238.56 71.5441 234.337 73.0753 231.654 70.5781" stroke="#504755" stroke-linecap="round" stroke-linejoin="round"/>
<path d="M230.914 237.749C221.759 241.793 211.86 243.875 201.852 243.864C206.918 267.973 213.557 301.074 213.557 309.08C213.557 322.018 211.029 328.965 210.402 347.905C209.775 366.845 218.037 427.036 219.928 428.269C221.819 429.502 225.92 429.533 227.821 428.896C229.722 428.259 230.03 429.215 230.657 427.005C231.284 424.796 238.879 381.623 241.068 335.861C243.256 290.099 246.699 256.052 260.264 246.587C273.83 237.122 316.242 247.009 316.56 253.945C316.879 260.882 298.134 317.918 299.408 319.182C300.683 320.446 307.63 322.337 309.192 321.71C310.754 321.083 340.433 273.101 349.908 256.689C359.383 240.277 357.79 233.053 346.743 222.601C335.695 212.15 295.298 210.269 278.917 207.135C274.95 206.374 271.795 205.686 269.267 205.08C266.523 208.707 255.219 227.02 230.914 237.749Z" fill="#504755"/>
<mask id="mask0_366_1322" style="mask-type:luminance" maskUnits="userSpaceOnUse" x="201" y="205" width="156" height="225">
<path d="M230.914 237.749C221.759 241.793 211.86 243.875 201.852 243.864C206.918 267.973 213.557 301.074 213.557 309.08C213.557 322.018 211.029 328.965 210.402 347.905C209.775 366.845 218.037 427.036 219.928 428.269C221.819 429.502 225.92 429.533 227.821 428.896C229.722 428.259 230.03 429.215 230.657 427.005C231.284 424.796 238.879 381.623 241.068 335.861C243.256 290.099 246.699 256.052 260.264 246.587C273.83 237.122 316.242 247.009 316.56 253.945C316.879 260.882 298.134 317.918 299.408 319.182C300.683 320.446 307.63 322.337 309.192 321.71C310.754 321.083 340.433 273.101 349.908 256.689C359.383 240.277 357.79 233.053 346.743 222.601C335.695 212.15 295.298 210.269 278.917 207.135C274.95 206.374 271.795 205.686 269.267 205.08C266.523 208.707 255.219 227.02 230.914 237.749Z" fill="white"/>
</mask>
<g mask="url(#mask0_366_1322)">
<path d="M316.561 253.945C316.561 253.945 333.764 264.397 341.451 265.096" stroke="#6B6B6B" stroke-linecap="round" stroke-linejoin="round"/>
<path d="M305.842 248.334C305.842 248.334 319.808 262.999 330.28 269.289" stroke="#6B6B6B" stroke-linecap="round" stroke-linejoin="round"/>
<path d="M307.938 259.505C307.938 259.505 318.409 276.267 327.463 280.46" stroke="#6B6B6B" stroke-linecap="round" stroke-linejoin="round"/>
<path d="M263.254 245.549C263.254 245.549 270.232 237.862 298.195 232.981" stroke="#6B6B6B" stroke-linecap="round" stroke-linejoin="round"/>
<path d="M286.295 239.26C286.295 239.26 304.444 237.205 314.217 235.766" stroke="#6B6B6B" stroke-linecap="round" stroke-linejoin="round"/>
<path d="M243.667 323.046C243.667 323.046 233.894 357.987 226.916 378.9" stroke="#6B6B6B" stroke-linecap="round" stroke-linejoin="round"/>
<path d="M238.817 357.956C235.366 373.792 228.722 388.759 219.291 401.94" stroke="#6B6B6B" stroke-linecap="round" stroke-linejoin="round"/>
</g>
<path d="M230.914 237.749C221.759 241.793 211.86 243.875 201.852 243.864C206.918 267.973 213.557 301.074 213.557 309.08C213.557 322.018 211.029 328.965 210.402 347.905C209.775 366.845 218.037 427.036 219.928 428.269C221.819 429.502 225.92 429.533 227.821 428.896C229.722 428.259 230.03 429.215 230.657 427.005C231.284 424.796 238.879 381.623 241.068 335.861C243.256 290.099 246.699 256.052 260.264 246.587C273.83 237.122 316.242 247.009 316.56 253.945C316.879 260.882 298.134 317.918 299.408 319.182C300.683 320.446 307.63 322.337 309.192 321.71C310.754 321.083 340.433 273.101 349.908 256.689C359.383 240.277 357.79 233.053 346.743 222.601C335.695 212.15 295.298 210.269 278.917 207.135C274.95 206.374 271.795 205.686 269.267 205.08C266.523 208.707 255.219 227.02 230.914 237.749Z" stroke="#504755" stroke-linecap="round" stroke-linejoin="round"/>
<path d="M198.84 266.37L200.741 270.738C200.944 271.199 201.274 271.594 201.693 271.876C202.111 272.158 202.601 272.315 203.105 272.331L206.702 272.423C207.244 272.439 207.779 272.289 208.234 271.993C208.689 271.698 209.044 271.271 209.25 270.769L211.305 265.692L198.84 266.37Z" fill="white" stroke="#504755" stroke-linecap="round" stroke-linejoin="round"/>
<path d="M278.229 185.616C279.041 183.704 275.711 177.754 274.879 176.171C267.685 162.586 247.358 162.267 238.407 174.116C235.149 178.432 233.402 183.992 229.157 187.301C220.052 194.382 207.052 185.749 197.3 184.65C176.058 182.255 161.496 202.696 162.061 222.15C162.585 240.267 174.095 257.841 190.517 265.528C191.339 265.918 192.182 266.278 193.025 266.607C212.263 274.201 230.689 264.973 241.325 248.376C244.511 243.391 247.255 238.15 250.482 233.197C252.188 230.587 254.356 228.131 257.244 226.969C262.978 224.647 270.305 226.404 276.451 224.667C280.705 223.465 286.985 221.286 289.009 216.878C291.239 211.996 288.382 211.852 284.292 212.099C280.202 212.346 275.536 208.523 275.094 201.277C274.652 194.032 278.229 185.616 278.229 185.616Z" fill="#757575" stroke="#504755" stroke-linecap="round" stroke-linejoin="round"/>
<path d="M275.267 186.715C276.079 184.814 272.75 178.854 271.927 177.281C264.785 163.696 244.406 163.377 235.445 175.226C232.198 179.542 230.451 185.102 226.196 188.411C217.091 195.481 204.101 186.859 194.338 185.76C173.096 183.365 158.544 203.806 159.11 223.259C159.634 241.377 171.144 258.95 187.556 266.637C188.388 267.028 189.22 267.388 190.073 267.716C209.311 275.311 227.738 266.072 238.374 249.475C241.549 244.501 244.304 239.26 247.53 234.307C249.226 231.697 251.405 229.24 254.293 228.069C260.017 225.757 267.354 227.514 273.489 225.777C277.754 224.575 284.033 222.396 286.048 217.987C288.288 213.106 285.431 212.962 281.331 213.209C277.23 213.455 272.575 209.632 272.143 202.387C271.712 195.142 275.267 186.726 275.267 186.715Z" fill="#757575"/>
<mask id="mask1_366_1322" style="mask-type:luminance" maskUnits="userSpaceOnUse" x="159" y="166" width="128" height="105">
<path d="M275.267 186.715C276.079 184.814 272.75 178.854 271.927 177.281C264.785 163.696 244.406 163.377 235.445 175.226C232.198 179.542 230.451 185.102 226.196 188.411C217.091 195.481 204.101 186.859 194.338 185.76C173.096 183.365 158.544 203.806 159.11 223.259C159.634 241.377 171.144 258.95 187.556 266.637C188.388 267.028 189.22 267.388 190.073 267.716C209.311 275.311 227.738 266.072 238.374 249.475C241.549 244.501 244.304 239.26 247.53 234.307C249.226 231.697 251.405 229.24 254.293 228.069C260.017 225.757 267.354 227.514 273.489 225.777C277.754 224.575 284.033 222.396 286.048 217.987C288.288 213.106 285.431 212.962 281.331 213.209C277.23 213.455 272.575 209.632 272.143 202.387C271.712 195.142 275.267 186.726 275.267 186.715Z" fill="white"/>
</mask>
<g mask="url(#mask1_366_1322)">
<path opacity="0.19" d="M284.26 212.171C280.149 212.428 275.504 208.595 275.062 201.349C274.62 194.104 278.227 185.667 278.227 185.667C279.039 183.756 275.71 177.805 274.877 176.223C269.091 165.206 254.601 162.915 244.551 168.772L205.869 269.35C220.195 269.72 233.092 261.283 241.293 248.448C244.479 243.463 247.223 238.222 250.45 233.269C252.145 230.659 254.324 228.202 257.212 227.041C262.946 224.719 270.273 226.476 276.419 224.739C280.673 223.537 286.952 221.358 288.977 216.949C291.207 212.017 288.35 211.873 284.26 212.171Z" fill="white"/>
<path opacity="0.19" d="M208.931 175.565C210.779 174.497 212.768 173.694 214.84 173.181C207.872 166.666 196.63 165.987 188.377 170.776L149.686 271.355C159.469 271.601 168.584 267.747 175.994 261.191L208.931 175.565Z" fill="white"/>
</g>
<path d="M275.267 186.715C276.079 184.814 272.75 178.854 271.927 177.281C264.785 163.696 244.406 163.377 235.445 175.226C232.198 179.542 230.451 185.102 226.196 188.411C217.091 195.481 204.101 186.859 194.338 185.76C173.096 183.365 158.544 203.806 159.11 223.259C159.634 241.377 171.144 258.95 187.556 266.637C188.388 267.028 189.22 267.388 190.073 267.716C209.311 275.311 227.738 266.072 238.374 249.475C241.549 244.501 244.304 239.26 247.53 234.307C249.226 231.697 251.405 229.24 254.293 228.069C260.017 225.757 267.354 227.514 273.489 225.777C277.754 224.575 284.033 222.396 286.048 217.987C288.288 213.106 285.431 212.962 281.331 213.209C277.23 213.455 272.575 209.632 272.143 202.387C271.712 195.142 275.267 186.726 275.267 186.715Z" stroke="#504755" stroke-linecap="round" stroke-linejoin="round"/>
<path d="M259.072 192.121L263.748 203.312L378.128 144.653L374.13 136.041L259.072 192.121Z" fill="#504755" stroke="#504755" stroke-linecap="round" stroke-linejoin="round"/>
<path d="M273.469 195.04C273.469 195.04 251.549 229.302 244.006 232.724C236.463 236.146 231.345 224.986 235.959 217.546C240.573 210.105 273.469 195.04 273.469 195.04Z" fill="white" stroke="#504755" stroke-linecap="round" stroke-linejoin="round"/>
<path d="M268.768 203.47L261.346 188.178C260.788 187.029 259.405 186.55 258.256 187.107L252.135 190.078C250.987 190.635 250.507 192.019 251.065 193.168L258.487 208.459C259.044 209.608 260.428 210.088 261.577 209.53L267.697 206.559C268.846 206.002 269.325 204.618 268.768 203.47Z" fill="white" stroke="#504755" stroke-linecap="round" stroke-linejoin="round"/>
<path d="M242.731 218.404L235.771 202.896C235.248 201.731 233.88 201.21 232.715 201.733L226.508 204.519C225.343 205.042 224.822 206.41 225.345 207.575L232.305 223.083C232.828 224.248 234.196 224.768 235.361 224.246L241.568 221.46C242.733 220.937 243.253 219.569 242.731 218.404Z" fill="white" stroke="#504755" stroke-linecap="round" stroke-linejoin="round"/>
<path d="M207.38 237.544L196.723 215.058C196.643 214.891 196.597 214.709 196.589 214.524C196.581 214.338 196.611 214.153 196.676 213.979C196.741 213.806 196.841 213.647 196.969 213.513C197.097 213.378 197.251 213.272 197.422 213.198C197.586 213.118 197.765 213.071 197.948 213.06C198.131 213.049 198.314 213.075 198.487 213.135C198.66 213.195 198.819 213.289 198.955 213.411C199.092 213.533 199.203 213.681 199.282 213.846L209.939 236.331C210.094 236.664 210.112 237.045 209.989 237.391C209.866 237.737 209.612 238.021 209.281 238.181C209.115 238.268 208.933 238.321 208.747 238.336C208.56 238.351 208.372 238.328 208.194 238.269C208.017 238.209 207.853 238.114 207.713 237.99C207.573 237.865 207.46 237.713 207.38 237.544Z" fill="white" stroke="#504755" stroke-linecap="round" stroke-linejoin="round"/>
<path d="M196.99 215.953L163.725 243.186C163.222 243.595 162.874 244.163 162.74 244.797C162.605 245.431 162.691 246.092 162.985 246.67L165.184 251.048C165.506 251.69 166.059 252.186 166.731 252.438C167.404 252.689 168.147 252.677 168.812 252.404L207.154 236.64L205.715 234.091L180.804 238.572L198.532 219.549L196.99 215.953Z" fill="white" stroke="#504755" stroke-linecap="round" stroke-linejoin="round"/>
<path d="M234.963 226.25C234.589 225.932 234.106 225.774 233.617 225.811C233.128 225.847 232.674 226.075 232.352 226.445C228.468 230.237 223.852 233.199 218.787 235.15C215.504 236.488 212.14 237.621 208.716 238.541C207.853 238.757 206.989 238.973 206.126 239.127C204.071 239.497 200.721 240.309 200.988 242.991C201.042 243.663 201.34 244.293 201.825 244.761C202.311 245.23 202.95 245.506 203.624 245.537C204.298 245.569 204.96 245.354 205.487 244.932C206.013 244.511 206.369 243.912 206.486 243.248C211.236 242.29 215.878 240.855 220.339 238.962C226.011 236.803 231.097 233.343 235.189 228.86C235.346 228.674 235.464 228.459 235.538 228.227C235.611 227.995 235.638 227.751 235.617 227.508C235.596 227.266 235.528 227.03 235.415 226.814C235.303 226.598 235.149 226.406 234.963 226.25Z" fill="white" stroke="#504755" stroke-linecap="round" stroke-linejoin="round"/>
<path d="M195.705 252.25C195.657 251.702 195.446 251.18 195.101 250.751C194.755 250.322 194.29 250.005 193.765 249.84C193.239 249.675 192.677 249.67 192.148 249.825C191.62 249.98 191.149 250.288 190.796 250.71C190.442 251.133 190.222 251.65 190.163 252.198C190.103 252.745 190.208 253.298 190.463 253.786C190.718 254.275 191.112 254.676 191.595 254.941C192.078 255.205 192.629 255.32 193.177 255.272C193.542 255.239 193.896 255.135 194.221 254.966C194.545 254.797 194.833 254.565 195.067 254.285C195.302 254.004 195.479 253.68 195.589 253.331C195.698 252.982 195.738 252.615 195.705 252.25Z" fill="white" stroke="#504755" stroke-linecap="round" stroke-linejoin="round"/>
<path d="M216.528 255.179C216.479 254.63 216.268 254.108 215.922 253.679C215.576 253.25 215.11 252.933 214.584 252.769C214.058 252.604 213.495 252.6 212.966 252.756C212.438 252.912 211.967 253.221 211.614 253.644C211.261 254.068 211.042 254.586 210.984 255.134C210.926 255.682 211.032 256.235 211.289 256.723C211.545 257.211 211.941 257.612 212.425 257.875C212.91 258.138 213.461 258.251 214.01 258.2C214.744 258.132 215.421 257.776 215.893 257.21C216.365 256.644 216.593 255.913 216.528 255.179Z" fill="white" stroke="#504755" stroke-linecap="round" stroke-linejoin="round"/>
<path d="M300.138 172.112L298.926 172.698L303.396 182.821L304.599 182.204L300.138 172.112Z" fill="white" stroke="#504755" stroke-linecap="round" stroke-linejoin="round"/>
<path d="M308.308 168.125L307.105 168.711L311.494 178.648L312.696 178.032L308.308 168.125Z" fill="white" stroke="#504755" stroke-linecap="round" stroke-linejoin="round"/>
<path d="M289.533 177.281L288.32 177.867L292.914 188.226L294.106 187.609L289.533 177.281Z" fill="white" stroke="#504755" stroke-linecap="round" stroke-linejoin="round"/>
<path d="M316.488 164.137L315.285 164.723L319.591 174.486L320.783 173.869L316.488 164.137Z" fill="white" stroke="#504755" stroke-linecap="round" stroke-linejoin="round"/>
<path d="M279.533 182.152L278.32 182.738L283.017 193.323L284.219 192.707L279.533 182.152Z" fill="white" stroke="#504755" stroke-linecap="round" stroke-linejoin="round"/>
<path d="M271.929 199.027L273.132 198.41L268.322 187.62L267.109 188.205L271.929 199.027Z" fill="white" stroke="#504755" stroke-linecap="round" stroke-linejoin="round"/>
<path d="M324.668 160.15L323.455 160.736L327.679 170.314L328.881 169.697L324.668 160.15Z" fill="white" stroke="#504755" stroke-linecap="round" stroke-linejoin="round"/>
<path d="M365.57 140.213L364.357 140.799L368.54 149.586L369.732 148.969L365.57 140.213Z" fill="white" stroke="#504755" stroke-linecap="round" stroke-linejoin="round"/>
<path d="M349.209 148.188L347.996 148.774L352.353 157.93L353.546 157.314L349.209 148.188Z" fill="white" stroke="#504755" stroke-linecap="round" stroke-linejoin="round"/>
<path d="M357.39 144.201L356.178 144.786L360.443 153.758L361.645 153.141L357.39 144.201Z" fill="white" stroke="#504755" stroke-linecap="round" stroke-linejoin="round"/>
<path d="M332.849 156.163L331.637 156.748L336.169 166.265L337.361 165.648L332.849 156.163Z" fill="white" stroke="#504755" stroke-linecap="round" stroke-linejoin="round"/>
<path d="M341.039 152.175L339.826 152.771L344.255 162.092L345.458 161.476L341.039 152.175Z" fill="white" stroke="#504755" stroke-linecap="round" stroke-linejoin="round"/>
<path d="M374.952 136.411L201.039 222.879" stroke="white" stroke-width="0.5" stroke-linecap="round" stroke-linejoin="round"/>
<path d="M375.928 137.87L202.016 224.338" stroke="white" stroke-width="0.5" stroke-linecap="round" stroke-linejoin="round"/>
<path d="M376.895 139.34L202.992 225.808" stroke="white" stroke-width="0.5" stroke-linecap="round" stroke-linejoin="round"/>
<path d="M377.871 140.799L203.969 227.267" stroke="white" stroke-width="0.5" stroke-linecap="round" stroke-linejoin="round"/>
<path d="M378.848 142.258L204.945 228.727" stroke="white" stroke-width="0.5" stroke-linecap="round" stroke-linejoin="round"/>
<path d="M379.822 143.728L205.92 230.196" stroke="white" stroke-width="0.5" stroke-linecap="round" stroke-linejoin="round"/>
<path d="M374.182 136.041L377.018 125.435C377.018 125.435 385.99 127.419 396.78 117.594C401.884 122.885 405.174 129.662 406.173 136.945C406.173 136.945 390.892 140.398 387.88 148.167L378.179 144.653L374.182 136.041Z" fill="#504755" stroke="#504755" stroke-linecap="round" stroke-linejoin="round"/>
<path d="M384.222 131.499C384.187 131.187 384.061 130.893 383.859 130.653C383.656 130.414 383.388 130.24 383.086 130.153C382.785 130.066 382.465 130.071 382.167 130.167C381.868 130.262 381.605 130.444 381.41 130.69C381.215 130.935 381.097 131.233 381.072 131.545C381.046 131.858 381.114 132.171 381.267 132.445C381.419 132.718 381.65 132.941 381.929 133.083C382.208 133.226 382.523 133.282 382.835 133.246C383.25 133.197 383.628 132.985 383.888 132.658C384.148 132.331 384.268 131.914 384.222 131.499Z" fill="white" stroke="#504755" stroke-linecap="round" stroke-linejoin="round"/>
<path d="M389.339 129.011C389.305 128.7 389.179 128.406 388.977 128.167C388.776 127.927 388.508 127.753 388.207 127.666C387.906 127.578 387.586 127.582 387.288 127.677C386.99 127.772 386.726 127.953 386.53 128.197C386.335 128.441 386.216 128.738 386.189 129.05C386.163 129.362 386.229 129.675 386.38 129.949C386.531 130.224 386.76 130.447 387.038 130.591C387.316 130.735 387.63 130.793 387.942 130.759C388.359 130.712 388.74 130.502 389.002 130.174C389.264 129.847 389.385 129.428 389.339 129.011Z" fill="white" stroke="#504755" stroke-linecap="round" stroke-linejoin="round"/>
<path d="M394.458 126.514C394.424 126.203 394.298 125.909 394.096 125.67C393.895 125.43 393.627 125.256 393.326 125.169C393.025 125.081 392.706 125.085 392.407 125.18C392.109 125.274 391.845 125.455 391.65 125.7C391.454 125.944 391.335 126.241 391.309 126.553C391.282 126.865 391.348 127.178 391.499 127.452C391.65 127.726 391.879 127.95 392.157 128.094C392.435 128.238 392.75 128.296 393.061 128.261C393.478 128.215 393.859 128.005 394.121 127.677C394.383 127.35 394.505 126.931 394.458 126.514Z" fill="white" stroke="#504755" stroke-linecap="round" stroke-linejoin="round"/>
<path d="M388.28 140.028C388.246 139.717 388.119 139.423 387.917 139.183C387.715 138.944 387.446 138.769 387.145 138.683C386.844 138.596 386.524 138.601 386.225 138.696C385.927 138.792 385.663 138.974 385.468 139.22C385.273 139.465 385.156 139.763 385.13 140.075C385.105 140.388 385.173 140.701 385.325 140.974C385.478 141.248 385.708 141.47 385.988 141.613C386.267 141.756 386.582 141.812 386.893 141.775C387.308 141.726 387.687 141.515 387.947 141.188C388.207 140.861 388.327 140.444 388.28 140.028Z" fill="white" stroke="#504755" stroke-linecap="round" stroke-linejoin="round"/>
<path d="M393.4 137.541C393.365 137.23 393.239 136.936 393.038 136.697C392.836 136.457 392.568 136.283 392.268 136.195C391.967 136.108 391.647 136.112 391.349 136.207C391.05 136.301 390.787 136.482 390.591 136.727C390.395 136.971 390.277 137.268 390.25 137.58C390.223 137.892 390.29 138.205 390.441 138.479C390.592 138.753 390.821 138.977 391.099 139.121C391.377 139.265 391.691 139.323 392.002 139.288C392.419 139.242 392.801 139.032 393.063 138.704C393.325 138.376 393.446 137.958 393.4 137.541Z" fill="white" stroke="#504755" stroke-linecap="round" stroke-linejoin="round"/>
<path d="M398.517 135.095C398.482 134.784 398.357 134.49 398.155 134.251C397.953 134.011 397.685 133.837 397.385 133.75C397.084 133.662 396.764 133.666 396.466 133.761C396.167 133.856 395.904 134.037 395.708 134.281C395.513 134.525 395.394 134.822 395.367 135.134C395.34 135.446 395.407 135.759 395.558 136.033C395.709 136.307 395.938 136.531 396.216 136.675C396.494 136.819 396.808 136.877 397.119 136.842C397.536 136.796 397.918 136.586 398.18 136.258C398.442 135.931 398.563 135.512 398.517 135.095Z" fill="white" stroke="#504755" stroke-linecap="round" stroke-linejoin="round"/>
<path d="M350.832 158.732C350.832 158.732 344.759 149.483 344.851 148.455C345.273 144.18 352.117 154.128 353.689 155.711C355.262 157.293 354.953 159.184 353.371 161.075C351.788 162.966 341.398 163.593 341.398 163.593L350.832 158.732Z" fill="white" stroke="#504755" stroke-linecap="round" stroke-linejoin="round"/>
<path d="M354.728 156.08C354.728 156.08 349.467 147.931 351.09 146.358C353.403 144.128 353.814 147.633 355.448 150.634C357.082 153.634 358.716 156.173 357.719 157.077C355.89 158.732 354.728 156.08 354.728 156.08Z" fill="white" stroke="#504755" stroke-linecap="round" stroke-linejoin="round"/>
<path d="M357.996 153.994C357.996 153.994 353.238 144.951 354.358 144.272C355.478 143.594 357.082 145.547 358.716 148.537C360.35 151.528 361.994 154.076 360.987 154.991C359.157 156.676 357.996 153.994 357.996 153.994Z" fill="white" stroke="#504755" stroke-linecap="round" stroke-linejoin="round"/>
<path d="M362.169 155.258C362.169 155.258 357.894 146.245 358.541 145.547C360.103 143.841 361.265 146.811 362.899 149.811C364.533 152.812 366.167 155.351 365.17 156.255C363.33 157.93 362.169 155.258 362.169 155.258Z" fill="white" stroke="#504755" stroke-linecap="round" stroke-linejoin="round"/>
<path d="M192.962 104.769C192.962 104.769 183.888 110.236 175.05 116.865C166.212 123.493 135.279 199.243 136.861 202.09C138.444 204.936 218.921 215.346 224.285 216.292C229.65 217.237 232.507 218.501 235.96 217.546C239.413 216.59 243.544 211.554 243.544 211.554C243.544 211.554 247.655 210.927 248.271 208.718C248.888 206.509 247.007 206.509 244.798 205.553C242.588 204.597 241.016 201.442 239.433 199.88C237.851 198.318 230.287 200.188 227.44 201.452C224.594 202.716 219.866 204.926 217.338 205.244C214.81 205.563 200.299 203.662 187.669 196.715C175.039 189.768 171.227 187.569 169.367 185.986C167.506 184.403 197.771 136.75 197.771 136.75" fill="#FF4459"/>
<path d="M192.962 104.769C192.962 104.769 183.888 110.236 175.05 116.865C166.212 123.493 135.279 199.243 136.861 202.09C138.444 204.936 218.921 215.346 224.285 216.292C229.65 217.237 232.507 218.501 235.96 217.546C239.413 216.59 243.544 211.554 243.544 211.554C243.544 211.554 247.655 210.927 248.271 208.718C248.888 206.509 247.007 206.509 244.798 205.553C242.588 204.597 241.016 201.442 239.433 199.88C237.851 198.318 230.287 200.188 227.44 201.452C224.594 202.716 219.866 204.926 217.338 205.244C214.81 205.563 200.299 203.662 187.669 196.715C175.039 189.768 171.227 187.569 169.367 185.986C167.506 184.403 197.771 136.75 197.771 136.75" stroke="#504755" stroke-linecap="round" stroke-linejoin="round"/>
<path d="M248.272 208.718C248.909 206.508 247.008 206.508 244.798 205.552C242.589 204.597 241.016 201.442 239.434 199.88C237.851 198.318 230.287 200.188 227.441 201.452C224.594 202.716 219.867 204.925 217.339 205.244C214.811 205.563 200.3 203.661 187.67 196.714C175.04 189.767 171.227 187.568 169.367 185.986C168.75 185.472 171.566 180.056 175.625 172.996C166.803 171.731 158.246 169.034 150.293 165.011C142.442 183.622 136.122 200.763 136.862 202.089C138.434 204.926 218.921 215.346 224.286 216.292C229.65 217.237 232.507 218.501 235.96 217.545C239.413 216.59 243.544 211.554 243.544 211.554C243.544 211.554 247.645 210.927 248.272 208.718Z" fill="white" stroke="#504755" stroke-linecap="round" stroke-linejoin="round"/>
<path d="M169.367 185.986C169.367 185.986 158.915 182.851 151.783 190.929" stroke="#504755" stroke-linecap="round" stroke-linejoin="round"/>
<path d="M148.752 168.69C157.241 172.472 169.213 174.198 174.577 174.856C176.314 171.773 178.339 168.34 180.466 164.795C171.148 163.785 162.032 161.395 153.418 157.704C151.825 161.404 150.252 165.093 148.752 168.69Z" fill="#504755" stroke="#504755" stroke-linecap="round" stroke-linejoin="round"/>
</svg>
